<?xml version="1.0" encoding="utf-8"?>
<!-- Generator: Adobe Illustrator 27.2.0, SVG Export Plug-In . SVG Version: 6.00 Build 0)  -->
<svg version="1.1" id="Layer_1" xmlns:v="https://vecta.io/nano"
	 xmlns="http://www.w3.org/2000/svg" xmlns:xlink="http://www.w3.org/1999/xlink" x="0px" y="0px" viewBox="0 0 555 171.6"
	 style="enable-background:new 0 0 555 171.6;" xml:space="preserve">
<style type="text/css">
	.st0{fill:#0D67B1;}
	.st1{fill:#FBDF00;}
</style>
<g>
	<g>
		<g>
			<g>
				<polygon class="st0" points="323.2,41.3 328.8,41.3 328.8,58.1 349.7,58.1 349.7,41.3 355.3,41.3 355.3,82 349.7,82 349.7,63 
					328.8,63 328.8,82 323.2,82 				"/>
				<polygon class="st0" points="368,41.3 397.6,41.3 397.6,46.3 373.4,46.3 373.4,58.6 395.8,58.6 395.8,63.3 373.4,63.3 
					373.4,77.2 398,77.2 398,82 368,82 				"/>
				<path class="st0" d="M420.7,41.3h6.2L441.7,82h-6l-4.2-12.2h-16L411,82h-5.7L420.7,41.3z M429.8,65.3l-6.3-18l-6.5,18H429.8z"/>
				<polygon class="st0" points="450.1,41.3 455.6,41.3 455.6,77.2 476.1,77.2 476.1,82 450.1,82 				"/>
				<polygon class="st0" points="510.5,41.3 510.5,46.1 496.8,46.1 496.8,82 491.2,82 491.2,46.1 477.5,46.1 477.5,41.3 				"/>
				<polygon class="st0" points="519.2,41.3 524.7,41.3 524.7,58.1 545.7,58.1 545.7,41.3 551.2,41.3 551.2,82 545.7,82 545.7,63 
					524.7,63 524.7,82 519.2,82 				"/>
			</g>
			<g>
				<rect x="323.2" y="101.7" class="st0" width="3.6" height="26.3"/>
				<polygon class="st0" points="334.8,101.7 339,101.7 352.1,123 352.1,101.7 355.5,101.7 355.5,128 351.5,128 338.2,106.8 
					338.2,128 334.8,128 				"/>
				<path class="st0" d="M365.8,119.5c0.1,1.5,0.4,2.7,1,3.6c1.1,1.7,3.1,2.6,6,2.6c1.3,0,2.5-0.2,3.5-0.6c2.1-0.7,3.1-2.1,3.1-4
					c0-1.5-0.4-2.5-1.3-3.1c-0.9-0.6-2.3-1.1-4.1-1.6l-3.4-0.8c-2.3-0.5-3.8-1.1-4.8-1.7c-1.6-1.1-2.4-2.7-2.4-4.9
					c0-2.4,0.8-4.3,2.4-5.8c1.6-1.5,3.9-2.3,6.8-2.3c2.7,0,5,0.7,6.8,2c1.9,1.3,2.8,3.4,2.8,6.4h-3.4c-0.2-1.4-0.5-2.5-1.1-3.2
					c-1-1.4-2.8-2.1-5.3-2.1c-2,0-3.5,0.5-4.3,1.3c-0.9,0.9-1.3,1.9-1.3,3.1c0,1.3,0.5,2.3,1.6,2.8c0.7,0.4,2.2,0.9,4.6,1.5l3.6,0.8
					c1.7,0.4,3.1,1,4,1.7c1.6,1.2,2.4,3,2.4,5.3c0,2.9-1,5-3.1,6.3c-2.1,1.2-4.5,1.9-7.2,1.9c-3.2,0-5.7-0.8-7.5-2.5
					c-1.8-1.7-2.7-3.9-2.7-6.8H365.8z"/>
				<path class="st0" d="M394,101.7V118c0,1.9,0.4,3.5,1.1,4.8c1.1,1.9,2.9,2.9,5.4,2.9c3,0,5.1-1,6.2-3.1c0.6-1.1,0.9-2.6,0.9-4.5
					v-16.3h3.6v14.8c0,3.2-0.4,5.7-1.3,7.5c-1.6,3.2-4.6,4.8-9.1,4.8c-4.4,0-7.5-1.6-9.1-4.8c-0.9-1.7-1.3-4.2-1.3-7.5v-14.8H394z"
					/>
				<path class="st0" d="M419.3,101.7h12c2,0,3.6,0.3,4.9,0.9c2.4,1.1,3.6,3.2,3.6,6.2c0,1.6-0.3,2.9-1,3.9c-0.6,1-1.6,1.8-2.7,2.4
					c1,0.4,1.8,1,2.3,1.7c0.5,0.7,0.8,1.8,0.9,3.3l0.1,3.5c0,1,0.1,1.7,0.3,2.3c0.2,0.8,0.6,1.4,1.1,1.6v0.6h-4.4
					c-0.1-0.2-0.2-0.5-0.3-0.9c-0.1-0.4-0.1-1-0.2-2.1l-0.2-4.4c-0.1-1.7-0.7-2.9-1.9-3.5c-0.7-0.3-1.7-0.5-3.1-0.5h-7.9V128h-3.6
					V101.7z M430.8,113.8c1.6,0,2.9-0.3,3.9-1c1-0.7,1.4-1.9,1.4-3.6c0-1.9-0.7-3.2-2-3.8c-0.7-0.4-1.7-0.5-2.8-0.5h-8.5v9H430.8z"
					/>
				<path class="st0" d="M455.2,101.7h4l9.5,26.3h-3.9l-2.7-7.9h-10.3l-2.8,7.9h-3.7L455.2,101.7z M461.1,117.2l-4-11.6l-4.2,11.6
					H461.1z"/>
				<polygon class="st0" points="474.2,101.7 478.4,101.7 491.5,123 491.5,101.7 494.9,101.7 494.9,128 490.9,128 477.6,106.8 
					477.6,128 474.2,128 				"/>
				<path class="st0" d="M521.5,103.6c1.8,1.8,2.8,3.8,3,6H521c-0.4-1.7-1.2-3-2.3-4c-1.2-1-2.8-1.5-4.9-1.5c-2.5,0-4.6,0.9-6.2,2.7
					c-1.6,1.8-2.3,4.6-2.3,8.4c0,3.1,0.7,5.6,2.1,7.5c1.4,1.9,3.5,2.9,6.3,2.9c2.6,0,4.5-1,5.9-3c0.7-1.1,1.3-2.5,1.6-4.2h3.5
					c-0.3,2.8-1.3,5.1-3,7c-2.1,2.3-4.8,3.4-8.3,3.4c-3,0-5.6-0.9-7.6-2.8c-2.7-2.5-4-6.2-4-11.4c0-3.9,1-7,3-9.5
					c2.2-2.7,5.2-4.1,9.1-4.1C517.1,101,519.7,101.9,521.5,103.6"/>
				<polygon class="st0" points="531.9,101.7 551,101.7 551,104.9 535.4,104.9 535.4,112.9 549.8,112.9 549.8,116 535.4,116 
					535.4,124.9 551.2,124.9 551.2,128 531.9,128 				"/>
			</g>
		</g>
		<g>
			<rect x="2.2" y="5.9" class="st1" width="309.7" height="159"/>
			<path class="st0" d="M88.6,62.2c-1.4-0.5-3-1-4.8-1.5c-1.8-0.5-3.8-1-6-1.3c-2.2-0.4-4.7-0.5-7.4-0.6c-3.2,0-6.4,0.5-9.6,1.4
				c-3.1,0.9-6.1,2.4-8.9,4.3c-2.8,1.9-5.3,4.3-7.4,7.2c-2.1,2.9-3.8,6.3-5.1,10.2c-1.2,3.9-1.8,8.3-1.9,13.3
				c0,5.2,0.8,9.8,2.1,13.6c1.4,3.9,3.3,7.2,5.6,9.8c2.4,2.7,5,4.8,7.8,6.4c2.9,1.6,5.8,2.8,8.8,3.5c3,0.7,5.8,1.1,8.5,1.1
				c2.8,0,5.4-0.2,7.8-0.6c2.4-0.4,4.5-0.8,6.5-1.4c1.9-0.5,3.6-1,5.1-1.6v-7.6c-1.4,0.6-3,1.3-4.8,1.9c-1.8,0.6-3.8,1.2-6,1.6
				c-2.2,0.4-4.7,0.7-7.5,0.7c-4.7,0-8.7-0.9-12-2.5c-3.3-1.6-6-3.7-8.1-6.4c-2.1-2.7-3.6-5.7-4.6-9.1c-1-3.4-1.5-6.8-1.5-10.4
				c0-3.6,0.5-7,1.5-10.5c1-3.4,2.6-6.5,4.7-9.2c2.1-2.8,4.7-5,7.9-6.6c3.2-1.7,7-2.5,11.3-2.5c2.6,0,4.9,0.2,7,0.7
				c2.1,0.4,4,1,5.8,1.7c1.8,0.7,3.5,1.4,5.1,2.1V62.2"/>
			<path class="st0" d="M156.3,116.4c-0.5,0.4-1.2,1-2.1,1.6c-0.9,0.7-1.8,1.4-2.8,2c-1,0.6-1.9,1.3-2.8,1.7
				c-0.9,0.5-1.6,0.7-2.1,0.7c-0.5,0-0.8-0.1-1-0.2c-0.2-0.2-0.3-0.3-0.4-0.5c0-0.2-0.1-0.6-0.1-1.3c0-0.7-0.1-1.5-0.1-2.4v-2.3
				V80.8c0-2.6-0.1-4.8-0.2-6.6c-0.2-1.8-0.6-3.5-1.2-5c-0.6-1.4-1.6-2.9-2.9-4.3c-1.3-1.5-3-2.6-4.9-3.5c-1.9-0.9-4-1.6-6.1-1.9
				c-2.1-0.4-4.2-0.6-6.1-0.6c-2.5,0-4.9,0.3-7.1,0.8c-2.2,0.5-4.2,1.2-6.1,1.9c-1.9,0.8-3.5,1.6-4.9,2.4c-1.4,0.8-2.7,1.5-3.7,2.2
				v7.4c2.4-1.7,4.7-3.2,6.9-4.4c2.1-1.2,4.4-2.2,6.6-2.8c2.3-0.6,4.7-0.9,7.5-0.9c3.7,0,6.7,0.6,8.9,1.7c2.2,1.2,3.8,2.7,4.7,4.8
				c0.9,2,1.4,4.4,1.4,7v8.6c-1.6,0.1-3.7,0.2-6.2,0.5c-2.5,0.3-5.3,0.7-8.3,1.3c-3,0.6-6,1.5-8.9,2.6c-3,1.1-5.7,2.6-8.2,4.4
				c-2.5,1.8-4.5,4.1-6,6.7c-1.5,2.7-2.2,5.9-2.3,9.5c0,2.5,0.5,4.7,1.5,6.8c1,2.1,2.3,3.9,4,5.4c1.7,1.5,3.6,2.7,5.9,3.6
				c2.2,0.9,4.6,1.3,7.1,1.3c2.6,0,5-0.4,7.2-0.9c2.2-0.6,4.2-1.4,6.1-2.3c1.8-0.9,3.4-1.8,4.7-2.8c1.3-0.9,2.5-1.8,3.3-2.5
				c0.1,1.7,0.3,3.2,0.6,4.5c0.2,1.3,0.7,2.3,1.4,2.9c0.7,0.7,1.7,1.1,3.1,1.1c1.5,0,3.4-0.6,5.6-1.9c2.2-1.2,4.9-3,8-5.3V116.4
				 M137.6,114.7c-1,0.9-2.1,1.9-3.4,2.9c-1.3,1-2.7,2-4.3,2.9c-1.6,0.9-3.3,1.7-5.2,2.2c-1.9,0.6-3.9,0.9-6.1,0.9
				c-1.4,0-2.8-0.2-4.3-0.6c-1.5-0.4-3-1.1-4.4-2c-1.4-0.9-2.5-2.1-3.4-3.5c-0.9-1.4-1.3-3.2-1.4-5.2c0-2,0.4-3.9,1.2-5.6
				c0.8-1.7,1.8-3.2,3.1-4.5c1.3-1.3,2.8-2.5,4.4-3.5c1.6-1,3.3-1.8,5-2.5c2.2-0.9,4.4-1.5,6.7-1.9c2.3-0.4,4.5-0.7,6.6-0.8
				c2.1-0.1,3.9-0.2,5.3-0.2V114.7z"/>
			<path class="st0" d="M213.2,66.8c-0.9-0.8-1.9-1.6-3-2.5c-1.1-0.9-2.4-1.8-3.7-2.6c-1.3-0.8-2.7-1.5-4.2-2.1
				c-1.5-0.5-3-0.8-4.6-0.8c-2.3,0-4.5,0.6-6.6,1.6c-2.1,1-4.1,2.3-6,3.9c-1.9,1.6-3.6,3.3-5.1,5.1c-1.5,1.8-2.9,3.4-4,5
				c-1.1,1.5-1.9,2.8-2.5,3.7V60.2h-7.3v68h7.3V85.5c1.5-2.4,3.1-4.8,4.8-7.1c1.7-2.3,3.5-4.3,5.4-6.2c1.9-1.8,3.8-3.3,5.8-4.3
				c2-1.1,4-1.6,5.9-1.6c1.7,0,3.3,0.5,5,1.3c1.6,0.8,3.1,1.8,4.6,2.9c1.5,1.1,2.8,2.2,3.9,3.3L213.2,66.8"/>
			<path class="st0" d="M276.3,91.5c0-2.4-0.2-4.8-0.6-7.3c-0.4-2.4-1.2-5-2.3-7.7c-0.9-2.1-2.1-4.1-3.6-6.2c-1.5-2.1-3.4-4-5.7-5.7
				c-2.2-1.7-4.8-3.1-7.9-4.2c-3-1.1-6.4-1.6-10.1-1.6c-4.9,0-9.3,1-13.1,2.9c-3.8,1.9-7.1,4.4-9.8,7.6c-2.7,3.2-4.7,6.9-6.2,11
				c-1.4,4.1-2.1,8.5-2.1,13c0,3.6,0.5,7.2,1.4,10.7c0.9,3.5,2.3,6.8,4.1,9.9c1.8,3,4.1,5.8,6.8,8.1c2.7,2.3,5.9,4.2,9.5,5.5
				c3.6,1.3,7.6,2,12.1,2c3.8,0,7.3-0.4,10.4-1.2c3.2-0.8,6.1-1.9,8.7-3.3c2.6-1.3,5-2.9,7.1-4.6v-8.2c-1,0.9-2.3,1.9-3.9,3.1
				c-1.6,1.2-3.4,2.3-5.5,3.4c-2.1,1.1-4.5,2.1-7.2,2.8c-2.7,0.7-5.6,1.1-8.9,1.1c-2.6,0-5.3-0.4-7.9-1.1c-2.6-0.8-5.1-2-7.4-3.6
				c-2.3-1.6-4.4-3.6-6.1-6.1c-1.8-2.5-3.1-5.4-4.1-8.8c-1-3.4-1.4-7.2-1.2-11.6H276.3 M223.7,85.8c0.6-3.5,1.8-6.6,3.3-9.1
				c1.5-2.6,3.4-4.7,5.5-6.3c2.1-1.7,4.3-2.9,6.7-3.7c2.3-0.8,4.7-1.2,7-1.2c3.8,0,7.2,0.9,10.2,2.6c3,1.7,5.4,4,7.2,6.9
				c1.3,2.1,2.3,4.1,2.8,5.9c0.6,1.8,1,3.5,1.3,5H223.7z"/>
			<rect x="214.9" y="41.2" class="st0" width="61.3" height="7"/>
		</g>
	</g>
</g>
</svg>
