<?xml version="1.0" encoding="utf-8"?>
<!-- Generator: Adobe Illustrator 26.0.3, SVG Export Plug-In . SVG Version: 6.00 Build 0)  -->
<svg version="1.0" id="katman_1" xmlns="http://www.w3.org/2000/svg" xmlns:xlink="http://www.w3.org/1999/xlink" x="0px" y="0px"
	 viewBox="0 0 532 394" style="enable-background:new 0 0 532 394;" xml:space="preserve">
<style type="text/css">
	
		.st0{clip-path:url(#SVGID_00000183969115664782676290000003579108910080194434_);fill-rule:evenodd;clip-rule:evenodd;fill:#133880;}
	
		.st1{clip-path:url(#SVGID_00000183969115664782676290000003579108910080194434_);fill-rule:evenodd;clip-rule:evenodd;fill:#E30613;}
	.st2{clip-path:url(#SVGID_00000183969115664782676290000003579108910080194434_);fill-rule:evenodd;clip-rule:evenodd;}
</style>
<g>
	<defs>
		<rect id="SVGID_1_" x="16" y="-53" width="500" height="500"/>
	</defs>
	<clipPath id="SVGID_00000013872994879777022870000003238492021787542684_">
		<use xlink:href="#SVGID_1_"  style="overflow:visible;"/>
	</clipPath>
	
		<path style="clip-path:url(#SVGID_00000013872994879777022870000003238492021787542684_);fill-rule:evenodd;clip-rule:evenodd;fill:#133880;" d="
		M316.7,194.7c2.4-3,5.3-6.1,8.9-9.5c3.6-3.5,6.8-6.2,10-8.5c3.4-2.6,7.8-2.7,11.2,0c3.1,2.4,6.3,5.1,9.9,8.6
		c3.6,3.5,6.5,6.6,8.9,9.5c2.9,3.5,2.8,7.2,0,10.8c-2.4,3-5.3,6.1-8.9,9.6c-3.6,3.5-6.8,6.2-9.9,8.5c-3.5,2.6-7.8,2.6-11.2,0
		c-3.1-2.4-6.3-5.1-9.9-8.5c-3.6-3.5-6.5-6.6-8.9-9.6C314,202.1,313.9,197.9,316.7,194.7"/>
	
		<path style="clip-path:url(#SVGID_00000013872994879777022870000003238492021787542684_);fill-rule:evenodd;clip-rule:evenodd;fill:#E30613;" d="
		M314.2,200.8c0.3,1.7,1.1,3.1,2.4,4.7c2.5,3,5.4,6.1,9,9.6c3.6,3.4,6.8,6.2,9.9,8.5c1.4,1.1,3.1,1.7,4.7,1.9
		c-3.3-0.8-8.2-5.9-5.6-15.1c2.4-8.7,6.4-15.1,8.4-19.1l0-0.1c4-7.5-1.7-10.1-6.1-6.3c3.2-4.3,10.4-11.4,12.9-14
		c2.5-2.6,0.7-5.3-4.3-3.9c-10.2,3.1-23,12.7-28.9,24C314.7,194.6,313.9,197.9,314.2,200.8"/>
	
		<path style="clip-path:url(#SVGID_00000013872994879777022870000003238492021787542684_);fill-rule:evenodd;clip-rule:evenodd;" d="
		M166.4,221.4c-3,0-5.8-0.5-8.5-1.5c-2.6-1-4.9-2.4-6.9-4.3c-1.9-1.8-3.4-4.1-4.5-6.7c-1.1-2.7-1.7-5.6-1.7-8.9
		c0-3.2,0.6-6.1,1.7-8.9c1.1-2.7,2.7-5.1,4.7-7.1c2-2,4.3-3.5,7.1-4.5c2.8-1.1,5.7-1.6,8.9-1.6c2.3,0,4.4,0.3,6.2,0.8
		c1.9,0.5,3.5,1.2,4.8,1.9l1.8-1.6h2.5l0.3,15h-2.6c-1.5-4.6-3.2-8-5.2-10.1c-2-2.2-4.5-3.2-7.4-3.2c-3.6,0-6.4,1.6-8.3,4.8
		c-1.9,3.2-2.8,7.7-2.8,13.5c0,3.3,0.3,6.1,1,8.4c0.7,2.3,1.5,4.2,2.6,5.6c1.1,1.5,2.4,2.6,4,3.3c1.5,0.7,3.2,1,5.1,1
		c2.7,0,5.1-0.7,7.2-2.2c2.1-1.5,4.1-3.7,5.8-6.7l2.5,1.5c-0.8,1.7-1.8,3.2-2.8,4.6c-1.1,1.3-2.3,2.5-3.7,3.5
		c-1.5,1.1-3.2,1.9-5.1,2.5C171.1,221.1,168.9,221.4,166.4,221.4"/>
	
		<path style="clip-path:url(#SVGID_00000013872994879777022870000003238492021787542684_);fill-rule:evenodd;clip-rule:evenodd;" d="
		M222.3,220.3h-17.5v-2.1c0.4,0,0.8-0.1,1.4-0.2c0.5-0.1,0.9-0.2,1.2-0.3c0.4-0.2,0.7-0.5,0.8-0.9c0.2-0.4,0.3-1,0.3-1.8v-13.6
		c0-2-0.4-3.5-1.1-4.5c-0.7-1-1.8-1.5-3.2-1.5c-0.8,0-1.5,0.1-2.2,0.3c-0.7,0.2-1.3,0.6-1.9,1c-0.6,0.4-1,0.8-1.4,1.2
		c-0.3,0.4-0.6,0.8-0.8,1.1v15.6c0,0.7,0.1,1.3,0.3,1.7c0.2,0.4,0.5,0.7,1,1c0.3,0.2,0.7,0.3,1.1,0.5c0.5,0.1,0.9,0.2,1.4,0.3v2.1
		H184v-2.1c0.5,0,1-0.1,1.5-0.2c0.5-0.1,0.9-0.2,1.3-0.3c0.6-0.2,1-0.6,1.3-1c0.2-0.4,0.3-1,0.3-1.7v-32.4c0-0.6-0.1-1.3-0.4-2
		c-0.3-0.7-0.7-1.2-1.2-1.6c-0.4-0.2-1-0.4-1.7-0.6c-0.7-0.2-1.4-0.3-2-0.3l0-2.1l14.4-0.8l0.4,0.5v20h0.1c0.7-0.7,1.4-1.2,2-1.8
		c0.6-0.5,1.3-1.1,2.2-1.6c0.7-0.5,1.6-0.9,2.8-1.2c1.2-0.3,2.4-0.5,3.7-0.5c3.1,0,5.5,0.9,7.1,2.7c1.6,1.8,2.4,4.2,2.4,7.1v14.2
		c0,0.7,0.1,1.3,0.3,1.7c0.2,0.4,0.6,0.8,1.2,1c0.4,0.2,0.7,0.3,1.2,0.4c0.4,0.1,1,0.2,1.6,0.3V220.3z"/>
	
		<path style="clip-path:url(#SVGID_00000013872994879777022870000003238492021787542684_);fill-rule:evenodd;clip-rule:evenodd;" d="
		M243.7,215c0.4-1.1,0.7-2.4,0.9-4c0.2-1.5,0.3-3.4,0.3-5.4c0-1.4-0.1-2.9-0.3-4.6c-0.2-1.7-0.5-3.1-0.9-4.1
		c-0.5-1.2-1.1-2.2-1.9-2.9c-0.8-0.7-1.9-1-3.1-1c-1.4,0-2.5,0.4-3.3,1.1c-0.8,0.8-1.4,1.7-1.9,2.9c-0.4,1.1-0.7,2.4-0.8,3.9
		c-0.2,1.5-0.2,3-0.2,4.6c0,2.1,0.1,3.9,0.2,5.3c0.1,1.4,0.5,2.8,1,4.2c0.4,1.2,1.1,2.2,1.9,2.9c0.8,0.7,1.9,1,3.2,1
		c1.2,0,2.2-0.3,3-1C242.6,217.2,243.2,216.3,243.7,215 M251.2,194.9c1.4,1.3,2.5,2.9,3.3,4.8c0.8,1.9,1.1,3.9,1.1,6
		c0,2.1-0.4,4.2-1.1,6.1c-0.7,1.9-1.8,3.5-3.3,4.9c-1.5,1.5-3.4,2.6-5.5,3.3c-2.1,0.8-4.5,1.2-7.3,1.2c-2.4,0-4.5-0.3-6.5-1
		c-2-0.7-3.7-1.7-5.3-3.1c-1.5-1.3-2.6-2.9-3.5-4.8c-0.9-1.9-1.3-4.1-1.3-6.4c0-2.3,0.4-4.4,1.1-6.2c0.8-1.8,1.9-3.4,3.4-4.8
		c1.4-1.4,3.2-2.4,5.3-3.1c2.1-0.8,4.5-1.1,7.1-1.1c2.7,0,5.1,0.4,7.2,1.1C247.9,192.5,249.7,193.5,251.2,194.9"/>
	
		<path style="clip-path:url(#SVGID_00000013872994879777022870000003238492021787542684_);fill-rule:evenodd;clip-rule:evenodd;" d="
		M273.5,220.3h-18.2v-2.1c0.5,0,1-0.1,1.5-0.2c0.5-0.1,0.9-0.2,1.3-0.3c0.6-0.2,1-0.6,1.3-1c0.2-0.4,0.3-1,0.3-1.7v-32.2
		c0-0.7-0.2-1.4-0.5-2c-0.3-0.6-0.7-1.1-1.2-1.5c-0.4-0.3-1-0.5-1.8-0.7c-0.8-0.2-1.5-0.4-2.1-0.4l0-2.1l14.6-0.8l0.4,0.5v38.8
		c0,0.7,0.1,1.3,0.4,1.7c0.3,0.4,0.7,0.8,1.2,1c0.4,0.2,0.8,0.3,1.2,0.5c0.4,0.1,0.9,0.2,1.5,0.3V220.3z"/>
	
		<path style="clip-path:url(#SVGID_00000013872994879777022870000003238492021787542684_);fill-rule:evenodd;clip-rule:evenodd;" d="
		M291.5,204.5c-1.1,0.4-2.2,0.8-3.2,1.3c-1.1,0.5-1.9,1-2.6,1.5c-0.7,0.5-1.3,1.2-1.7,2.1c-0.4,0.8-0.6,1.8-0.6,3
		c0,1.5,0.3,2.6,1,3.3c0.7,0.7,1.6,1,2.6,1c1.1,0,1.9-0.2,2.6-0.6c0.7-0.4,1.3-1,1.8-1.6L291.5,204.5z M306,219.7
		c-0.9,0.4-1.9,0.7-3,1c-1.2,0.3-2.4,0.5-3.7,0.5c-2.4,0-4.1-0.3-5.3-1c-1.1-0.7-1.9-1.7-2.3-3l-0.2,0c-0.7,0.7-1.3,1.2-1.9,1.7
		c-0.6,0.5-1.2,0.9-1.9,1.2c-0.9,0.4-1.8,0.7-2.6,0.9c-0.8,0.2-2,0.3-3.5,0.3c-2.2,0-4.2-0.7-5.7-2c-1.6-1.3-2.4-3.1-2.4-5.3
		c0-1.3,0.2-2.3,0.5-3.2c0.4-0.9,0.8-1.7,1.5-2.3c0.6-0.6,1.2-1.1,2-1.5c0.8-0.4,1.6-0.8,2.5-1.1c1.7-0.6,3.8-1.3,6.3-2
		c2.4-0.7,4.2-1.3,5.3-1.9v-2.8c0-0.5,0-1.1-0.1-1.9c-0.1-0.8-0.2-1.5-0.5-2c-0.3-0.6-0.7-1.1-1.3-1.6c-0.6-0.4-1.3-0.6-2.3-0.6
		c-0.8,0-1.6,0.1-2.1,0.4c-0.6,0.2-1,0.5-1.4,0.7c0.1,0.4,0.2,1,0.5,1.8c0.3,0.8,0.4,1.6,0.4,2.3c0,0.3-0.1,0.8-0.3,1.2
		c-0.2,0.5-0.4,0.9-0.8,1.2c-0.4,0.4-0.9,0.7-1.5,0.9c-0.5,0.2-1.4,0.3-2.5,0.3c-1.6,0-2.9-0.4-3.7-1.2c-0.8-0.8-1.2-1.8-1.2-3.1
		c0-1.1,0.4-2.1,1.3-2.9c0.9-0.9,1.9-1.6,3.2-2.1c1.2-0.6,2.6-1,4.2-1.3c1.6-0.3,3.1-0.5,4.4-0.5c1.9,0,3.6,0.1,5.2,0.4
		c1.6,0.2,3,0.7,4.2,1.4c1.2,0.7,2.1,1.7,2.8,3c0.7,1.3,1.1,3,1.1,5c0,2.2,0,4.8-0.1,7.8c-0.1,3-0.1,5-0.1,5.9
		c0,0.9,0.1,1.6,0.4,2.1c0.3,0.5,0.7,0.9,1.2,1.1c0.3,0.2,0.8,0.3,1.5,0.3c0.7,0,1.4,0,1.9,0L306,219.7z"/>
	
		<path style="clip-path:url(#SVGID_00000013872994879777022870000003238492021787542684_);fill-rule:evenodd;clip-rule:evenodd;" d="
		M429.7,220.3h-21.5v-2.2c0.6-0.1,1.4-0.1,2.3-0.3c0.9-0.1,1.6-0.3,1.9-0.4c0.7-0.3,1.2-0.7,1.5-1.1c0.3-0.5,0.4-1.1,0.4-1.8v-29.6
		l-13.6,34.8h-3.5c-0.2-0.6-0.6-1.8-1.3-3.7c-0.6-1.8-1.2-3.3-1.6-4.4l-10-27.2v24.1c0,2.3,0.1,4.1,0.4,5.3c0.3,1.2,0.8,2.1,1.5,2.6
		c0.5,0.4,1.3,0.8,2.5,1.1c1.2,0.4,2.1,0.6,2.5,0.6v2.2h-17v-2.2c0.5-0.1,1.2-0.2,2.3-0.4c1.1-0.2,1.9-0.6,2.6-1
		c0.7-0.5,1.3-1.4,1.5-2.6c0.3-1.3,0.4-3,0.4-5.3v-19.6c0-1.2-0.1-2.2-0.4-3c-0.3-0.8-0.7-1.4-1.3-1.9c-0.7-0.6-1.5-0.9-2.3-1.1
		c-0.8-0.2-1.6-0.3-2.4-0.3v-2.2h18.2l9.8,26.2l8.2-21.3c0.3-0.8,0.5-1.7,0.8-2.8c0.3-1.1,0.4-1.8,0.4-2.1h17.6v2.2
		c-0.6,0-1.2,0.1-1.9,0.2c-0.6,0.1-1.3,0.3-1.9,0.4c-0.7,0.2-1.2,0.6-1.5,1.1c-0.2,0.5-0.3,1.1-0.3,1.7v28.1c0,0.7,0.1,1.2,0.3,1.7
		c0.2,0.4,0.7,0.8,1.5,1.2c0.4,0.2,1,0.3,1.8,0.5c0.9,0.1,1.5,0.3,2,0.3V220.3z"/>
	
		<path style="clip-path:url(#SVGID_00000013872994879777022870000003238492021787542684_);fill-rule:evenodd;clip-rule:evenodd;" d="
		M448.3,221.4c-2.4,0-4.7-0.3-6.8-0.9c-2.1-0.6-3.9-1.3-5.3-2.1l-1.9,2h-2.4l-0.4-14.3h2.4c0.5,1.4,1.2,2.8,2.1,4.3
		c0.8,1.5,1.8,2.9,2.9,4.1c1.1,1.2,2.4,2.3,3.8,3c1.4,0.8,3.1,1.2,4.9,1.2c2.5,0,4.5-0.6,5.8-1.8c1.4-1.2,2-2.8,2-4.7
		c0-1.5-0.6-2.8-1.7-3.9c-1.1-1.1-2.9-2-5.3-2.7c-1.6-0.5-3-1-4.3-1.4c-1.3-0.4-2.5-0.9-3.7-1.3c-2.7-1.1-4.6-2.6-5.9-4.6
		c-1.3-2-1.9-4.2-1.9-6.6c0-1.5,0.3-3,1-4.4c0.7-1.4,1.6-2.7,2.9-3.9c1.2-1.1,2.8-1.9,4.7-2.6c1.9-0.7,4-1,6.3-1
		c2.2,0,4.3,0.3,6.2,0.9c1.9,0.6,3.4,1.2,4.5,1.8l1.7-1.7h2.4l0.2,13.5h-2.4c-0.6-1.4-1.2-2.9-2-4.4c-0.7-1.5-1.5-2.8-2.4-3.8
		c-0.9-1.1-2-1.9-3.2-2.6c-1.2-0.7-2.6-1-4.2-1c-2,0-3.7,0.6-4.9,1.7c-1.3,1.1-1.9,2.5-1.9,4.2c0,1.6,0.5,2.9,1.6,3.9
		c1.1,1,2.8,1.9,5.2,2.6c1.4,0.5,2.8,0.9,4.2,1.4c1.4,0.5,2.7,0.9,3.8,1.3c2.7,1,4.7,2.5,6.1,4.3c1.4,1.8,2.1,4.1,2.1,6.8
		c0,1.7-0.4,3.4-1.2,5c-0.8,1.6-1.9,2.9-3.2,4c-1.5,1.2-3.2,2.1-5.2,2.7C453.1,221,450.9,221.3,448.3,221.4"/>
	
		<path style="clip-path:url(#SVGID_00000013872994879777022870000003238492021787542684_);fill-rule:evenodd;clip-rule:evenodd;fill:#E30613;" d="
		M88,200.1c-3.8-1.5-6.5-3.6-5.9-8.9c0.8-7.1,12-15.3,15.6-19.3c2.5-2.9,3.1-9.8,3.1-9.8s3.7,7.8-0.6,14.2
		c-1.8,2.6-10.7,11.3-12.6,16.7C86.9,195.1,86.6,197.8,88,200.1"/>
	
		<path style="clip-path:url(#SVGID_00000013872994879777022870000003238492021787542684_);fill-rule:evenodd;clip-rule:evenodd;fill:#E30613;" d="
		M81.6,193.4c-3.8-1.6-6.8-4.2-6.1-9.5c0.9-7.1,12.3-15.1,15.9-19c2.6-2.8,3.3-9.7,3.3-9.7s3.6,7.8-0.9,14.2
		C92.1,172,83,180.5,81,185.9C80.3,188,79.8,190.7,81.6,193.4"/>
	
		<path style="clip-path:url(#SVGID_00000013872994879777022870000003238492021787542684_);fill-rule:evenodd;clip-rule:evenodd;fill:#E30613;" d="
		M106.3,194.3c3.8,1.5,6.5,3.6,5.9,8.9c-0.8,7.1-12,15.3-15.6,19.3c-2.5,2.8-3.1,9.8-3.1,9.8s-3.7-7.8,0.6-14.2
		c1.8-2.6,10.7-11.3,12.6-16.7C107.4,199.3,107.8,196.7,106.3,194.3"/>
	
		<path style="clip-path:url(#SVGID_00000013872994879777022870000003238492021787542684_);fill-rule:evenodd;clip-rule:evenodd;fill:#E30613;" d="
		M112.7,201c3.8,1.6,6.8,4.2,6.1,9.5c-0.9,7.1-12.3,15.1-15.9,19c-2.6,2.8-3.3,9.7-3.3,9.7s-3.6-7.8,0.9-14.2
		c1.8-2.6,10.9-11.2,12.9-16.5C114,206.4,114.5,203.8,112.7,201"/>
	
		<path style="clip-path:url(#SVGID_00000013872994879777022870000003238492021787542684_);fill-rule:evenodd;clip-rule:evenodd;fill:#133880;" d="
		M100.1,206.4c-1.5,3.8-3.6,6.5-8.9,5.9c-7.1-0.8-15.3-12-19.3-15.6c-2.9-2.5-9.8-3.1-9.8-3.1s7.8-3.7,14.2,0.6
		c2.6,1.8,11.3,10.7,16.7,12.6C95,207.4,97.7,207.8,100.1,206.4"/>
	
		<path style="clip-path:url(#SVGID_00000013872994879777022870000003238492021787542684_);fill-rule:evenodd;clip-rule:evenodd;fill:#133880;" d="
		M93.4,212.7c-1.6,3.8-4.2,6.8-9.5,6.1c-7.1-0.9-15.1-12.3-19-15.9c-2.8-2.6-9.7-3.3-9.7-3.3s7.8-3.6,14.2,0.9
		c2.6,1.8,11.1,10.9,16.5,12.9C87.9,214.1,90.6,214.6,93.4,212.7"/>
	
		<path style="clip-path:url(#SVGID_00000013872994879777022870000003238492021787542684_);fill-rule:evenodd;clip-rule:evenodd;fill:#133880;" d="
		M94.3,188c1.5-3.8,3.6-6.5,8.9-5.9c7.1,0.8,15.3,12,19.3,15.6c2.9,2.5,9.8,3.1,9.8,3.1s-7.8,3.7-14.2-0.6
		c-2.6-1.8-11.3-10.7-16.7-12.6C99.3,187,96.6,186.6,94.3,188"/>
	
		<path style="clip-path:url(#SVGID_00000013872994879777022870000003238492021787542684_);fill-rule:evenodd;clip-rule:evenodd;fill:#133880;" d="
		M101,181.7c1.6-3.8,4.2-6.8,9.5-6.1c7.1,0.9,15.1,12.3,19,15.9c2.8,2.6,9.7,3.3,9.7,3.3s-7.8,3.6-14.2-0.9
		c-2.6-1.8-11.1-10.9-16.5-12.9C106.4,180.3,103.7,179.8,101,181.7"/>
	
		<path style="clip-path:url(#SVGID_00000013872994879777022870000003238492021787542684_);fill-rule:evenodd;clip-rule:evenodd;" d="
		M158.1,244.2h5.2v0.4c-0.6,0-1,0.1-1.2,0.2c-0.2,0.1-0.3,0.3-0.4,0.6c-0.1,0.3-0.1,0.9-0.1,2l0,1.3c-0.1,0-0.3,0-0.4,0
		c-0.5,0-1.1,0.1-1.8,0.4c-1,0.4-1.9,0.6-2.8,0.6c-1.7,0-3.2-0.6-4.3-1.7c-1.1-1.1-1.7-2.6-1.7-4.3c0-1.7,0.5-3.2,1.6-4.5
		c1.1-1.3,2.6-1.9,4.5-1.9c1.6,0,2.9,0.6,4,1.8c0.2-0.4,0.3-0.9,0.4-1.3h0.4v4h-0.4c-0.2-1.2-0.6-2.2-1.4-2.9
		c-0.8-0.7-1.7-1.1-2.8-1.1c-1.1,0-2.1,0.4-3,1.3c-0.8,0.8-1.3,2.3-1.3,4.5c0,2.1,0.4,3.7,1.2,4.6c0.8,0.9,1.8,1.3,3,1.3
		c0.6,0,1.2-0.1,1.7-0.4c0.5-0.3,0.8-0.6,1-0.9c0.2-0.4,0.3-0.8,0.3-1.4c0-0.6,0-1.1-0.1-1.3c-0.1-0.2-0.2-0.4-0.4-0.4
		c-0.2-0.1-0.5-0.1-1-0.1h-0.3V244.2z"/>
	
		<path style="clip-path:url(#SVGID_00000013872994879777022870000003238492021787542684_);fill-rule:evenodd;clip-rule:evenodd;" d="
		M176.1,245.6h0.4l-0.2,3.8h-10v-0.4h0.3c0.6,0,1-0.1,1.2-0.2c0.2-0.2,0.3-0.4,0.3-0.6c0-0.3,0.1-0.9,0.1-1.9v-5.9
		c0-0.9,0-1.5-0.1-1.8c0-0.3-0.2-0.5-0.3-0.6c-0.2-0.1-0.6-0.2-1.1-0.2v-0.4h8.6l0.3,3H175c-0.2-0.8-0.4-1.4-0.7-1.8
		c-0.3-0.4-0.6-0.6-1-0.7c-0.4-0.1-1-0.1-1.8-0.1l-1.7,0v5.1h1.3c0.6,0,1-0.1,1.2-0.1c0.2-0.1,0.4-0.2,0.5-0.5
		c0.1-0.2,0.1-0.6,0.1-1.2l0.4,0v4.1h-0.4c0-0.7-0.1-1.1-0.2-1.3c-0.1-0.2-0.3-0.4-0.5-0.4c-0.2-0.1-0.6-0.1-1.1-0.1l-1.3,0v2.9
		c0,1.4,0.1,2.3,0.3,2.5c0.2,0.3,0.7,0.4,1.5,0.4h0.9c0.6,0,1.2-0.1,1.6-0.2c0.4-0.2,0.8-0.5,1.2-1
		C175.6,247.2,175.9,246.5,176.1,245.6"/>
	
		<path style="clip-path:url(#SVGID_00000013872994879777022870000003238492021787542684_);fill-rule:evenodd;clip-rule:evenodd;" d="
		M190.3,249.6l-8.5-11.3v8.4c0,0.7,0,1.2,0.1,1.4c0.1,0.2,0.3,0.4,0.6,0.6c0.3,0.2,0.8,0.3,1.4,0.3v0.4h-4.5v-0.4
		c0.6,0,1-0.1,1.3-0.3c0.3-0.2,0.5-0.4,0.5-0.5c0.1-0.2,0.1-0.7,0.1-1.4l0-6.4c0-0.9,0-1.5-0.1-1.9c-0.1-0.3-0.2-0.5-0.4-0.6
		c-0.2-0.1-0.6-0.1-1.2-0.1l0-0.4h3.6l7.1,9.4v-7.2c0-0.5-0.1-0.9-0.2-1.1c-0.1-0.2-0.3-0.4-0.7-0.5c-0.3-0.1-0.7-0.2-1.2-0.2v-0.4
		h4.4v0.4c-0.5,0-0.9,0.1-1.2,0.3c-0.3,0.2-0.5,0.3-0.6,0.6c-0.1,0.2-0.1,0.6-0.1,1.1l0,10H190.3z"/>
	
		<path style="clip-path:url(#SVGID_00000013872994879777022870000003238492021787542684_);fill-rule:evenodd;clip-rule:evenodd;" d="
		M205.2,245.6h0.4l-0.3,3.8h-10v-0.4h0.3c0.6,0,1-0.1,1.2-0.2c0.2-0.2,0.3-0.4,0.3-0.6c0-0.3,0.1-0.9,0.1-1.9l0-5.9
		c0-0.9,0-1.5-0.1-1.8c0-0.3-0.2-0.5-0.3-0.6c-0.2-0.1-0.6-0.2-1.1-0.2v-0.4h8.6l0.3,3h-0.4c-0.2-0.8-0.4-1.4-0.7-1.8
		c-0.3-0.4-0.6-0.6-1-0.7c-0.4-0.1-1-0.1-1.8-0.1l-1.7,0v5.1h1.3c0.6,0,1-0.1,1.2-0.1c0.2-0.1,0.4-0.2,0.5-0.5
		c0.1-0.2,0.1-0.6,0.1-1.2l0.4,0v4.1H202c0-0.7-0.1-1.1-0.2-1.3c-0.1-0.2-0.3-0.4-0.5-0.4c-0.2-0.1-0.6-0.1-1.1-0.1l-1.3,0v2.9
		c0,1.4,0.1,2.3,0.3,2.5c0.2,0.3,0.7,0.4,1.5,0.4h0.9c0.6,0,1.2-0.1,1.6-0.2c0.4-0.2,0.8-0.5,1.2-1
		C204.7,247.2,205,246.5,205.2,245.6"/>
	
		<path style="clip-path:url(#SVGID_00000013872994879777022870000003238492021787542684_);fill-rule:evenodd;clip-rule:evenodd;" d="
		M212.3,243.1c0.4,0,0.9,0,1.4-0.1c0.5,0,0.9-0.1,1.2-0.2c0.3-0.1,0.6-0.3,0.8-0.5c0.2-0.2,0.4-0.5,0.5-0.8c0.1-0.3,0.2-0.7,0.2-1.2
		c0-0.8-0.2-1.5-0.6-2c-0.4-0.5-1.3-0.8-2.8-0.8c-0.2,0-0.5,0-0.8,0V243.1z M221.4,249.3h-3.2c-0.6-0.4-1.5-1.5-2.6-3.2
		c-0.4-0.5-0.8-1.1-1.2-1.6c-0.4-0.5-0.7-0.8-0.8-0.9c-0.2-0.1-0.4-0.2-0.7-0.2l-0.5,0v2.7c0,1,0,1.6,0.1,1.9c0,0.3,0.2,0.5,0.4,0.6
		c0.2,0.1,0.6,0.2,1.1,0.2h0.6v0.4h-5.8v-0.4h0.4c0.5,0,0.9-0.1,1.1-0.2c0.2-0.1,0.3-0.3,0.4-0.6c0.1-0.3,0.1-0.9,0.1-1.9v-5.9
		c0-1,0-1.6-0.1-1.9c-0.1-0.3-0.2-0.5-0.4-0.6c-0.2-0.1-0.6-0.2-1.2-0.2l-0.2,0v-0.4l1.7-0.1c1.1-0.1,2.1-0.1,2.7-0.1
		c1.2,0,2.1,0.1,2.8,0.3c0.7,0.2,1.3,0.6,1.7,1.1c0.4,0.5,0.7,1.1,0.7,1.7c0,0.8-0.3,1.5-0.9,2c-0.6,0.6-1.4,0.9-2.6,1
		c0.5,0.2,1.3,1.1,2.4,2.6c0.9,1.2,1.6,2,2.1,2.4c0.5,0.4,1.1,0.6,1.8,0.6V249.3z"/>
	
		<path style="clip-path:url(#SVGID_00000013872994879777022870000003238492021787542684_);fill-rule:evenodd;clip-rule:evenodd;" d="
		M231.1,244.5l-2.1-5.1l-2.1,5.1H231.1z M231.3,244.9h-4.6l-0.3,0.8c-0.5,1.1-0.7,1.8-0.7,2.2c0,0.4,0.1,0.6,0.4,0.8
		c0.2,0.2,0.6,0.3,0.9,0.3v0.4h-3.6v-0.4c0.5-0.1,0.9-0.3,1.2-0.6c0.3-0.3,0.6-0.9,0.9-1.9c0-0.1,0.2-0.4,0.4-1l3.5-8.4h0.3l4,9.6
		l0.6,1.3c0.1,0.3,0.3,0.5,0.5,0.7c0.2,0.2,0.5,0.3,1,0.3l0,0.4h-4.7v-0.4c0.6,0,1,0,1.2-0.1c0.2-0.1,0.3-0.3,0.3-0.5
		c0-0.1-0.1-0.5-0.4-1.2L231.3,244.9z"/>
	
		<path style="clip-path:url(#SVGID_00000013872994879777022870000003238492021787542684_);fill-rule:evenodd;clip-rule:evenodd;" d="
		M248.6,245.8l-0.1,3.6h-10.2v-0.4h0.4c0.5,0,0.9-0.1,1.1-0.2c0.2-0.1,0.3-0.3,0.4-0.6c0.1-0.3,0.1-0.9,0.1-1.9l0-5.9
		c0-1,0-1.6-0.1-1.9c-0.1-0.3-0.2-0.5-0.4-0.6c-0.2-0.1-0.6-0.2-1.2-0.2l-0.3,0v-0.4h5.8v0.4h-0.5c-0.6,0-1,0.1-1.2,0.1
		c-0.2,0.1-0.3,0.3-0.4,0.5c-0.1,0.3-0.1,0.9-0.1,1.9l0,6.3c0,0.9,0,1.4,0.1,1.6c0.1,0.2,0.2,0.4,0.4,0.5c0.2,0.1,0.7,0.2,1.4,0.2
		h0.9c0.7,0,1.3-0.1,1.6-0.2c0.4-0.1,0.7-0.4,1-0.9c0.3-0.4,0.6-1.1,0.9-2.1L248.6,245.8z"/>
	
		<path style="clip-path:url(#SVGID_00000013872994879777022870000003238492021787542684_);fill-rule:evenodd;clip-rule:evenodd;" d="
		M257.8,237.7v-0.4h5.5v0.4h-0.3c-0.6,0-1,0.1-1.2,0.1c-0.2,0.1-0.3,0.3-0.4,0.5c-0.1,0.3-0.1,0.9-0.1,1.9v5.9c0,0.9,0,1.6,0.1,1.9
		c0,0.3,0.2,0.5,0.4,0.6c0.2,0.1,0.6,0.2,1.1,0.2h0.4v0.4h-5.5v-0.4h0.4c0.5,0,0.9-0.1,1.1-0.2c0.2-0.1,0.3-0.3,0.4-0.6
		c0.1-0.3,0.1-0.9,0.1-1.9v-5.9c0-1,0-1.6-0.1-1.9c-0.1-0.3-0.2-0.5-0.4-0.6c-0.2-0.1-0.6-0.2-1.2-0.2L257.8,237.7z"/>
	
		<path style="clip-path:url(#SVGID_00000013872994879777022870000003238492021787542684_);fill-rule:evenodd;clip-rule:evenodd;" d="
		M277,249.6l-8.5-11.3v8.4c0,0.7,0,1.2,0.1,1.4c0.1,0.2,0.3,0.4,0.6,0.6c0.3,0.2,0.8,0.3,1.4,0.3v0.4h-4.5v-0.4c0.6,0,1-0.1,1.3-0.3
		c0.3-0.2,0.5-0.4,0.5-0.5c0.1-0.2,0.1-0.7,0.1-1.4v-6.4c0-0.9,0-1.5-0.1-1.9c-0.1-0.3-0.2-0.5-0.4-0.6c-0.2-0.1-0.6-0.1-1.2-0.1
		v-0.4h3.6l7.1,9.4v-7.2c0-0.5-0.1-0.9-0.2-1.1c-0.1-0.2-0.3-0.4-0.7-0.5c-0.3-0.1-0.7-0.2-1.2-0.2v-0.4h4.4v0.4
		c-0.5,0-0.9,0.1-1.2,0.3c-0.3,0.2-0.5,0.3-0.6,0.6c-0.1,0.2-0.1,0.6-0.1,1.1v10H277z"/>
	
		<path style="clip-path:url(#SVGID_00000013872994879777022870000003238492021787542684_);fill-rule:evenodd;clip-rule:evenodd;" d="
		M282.5,249.2v-3.9h0.4c0.5,2.5,1.7,3.8,3.6,3.8c0.8,0,1.5-0.2,2-0.7c0.5-0.5,0.7-1,0.7-1.6c0-0.6-0.2-1.1-0.6-1.5
		c-0.4-0.4-1.2-0.8-2.2-1.3c-1-0.4-1.7-0.8-2.2-1.1c-0.5-0.3-0.9-0.7-1.2-1.2c-0.3-0.5-0.4-1-0.4-1.6c0-0.9,0.3-1.6,0.9-2.1
		c0.6-0.6,1.4-0.9,2.3-0.9c0.5,0,1,0.1,1.4,0.2c0.5,0.2,0.9,0.5,1.4,1c0.3-0.3,0.4-0.7,0.5-1.1h0.4v3.2H289
		c-0.2-0.9-0.6-1.6-1.2-2.2c-0.6-0.5-1.2-0.8-2-0.8c-0.7,0-1.2,0.2-1.6,0.6c-0.3,0.4-0.5,0.8-0.5,1.3c0,0.6,0.2,1,0.6,1.4
		c0.4,0.4,1.2,0.8,2.3,1.3c1,0.5,1.8,0.8,2.3,1.1c0.5,0.3,0.9,0.7,1.1,1.2c0.3,0.5,0.4,1.1,0.4,1.7c0,1-0.3,1.9-1,2.5
		c-0.7,0.6-1.6,1-2.8,1c-1.3,0-2.4-0.5-3.3-1.5c-0.2,0.3-0.3,0.7-0.4,1.2L282.5,249.2z"/>
	
		<path style="clip-path:url(#SVGID_00000013872994879777022870000003238492021787542684_);fill-rule:evenodd;clip-rule:evenodd;" d="
		M302.9,237.3h4v0.4c-0.5,0-0.9,0.2-1.2,0.4c-0.3,0.2-0.4,0.4-0.5,0.7c-0.1,0.2-0.1,0.8-0.1,1.5v4c0,1,0,1.8-0.1,2.3
		c-0.1,0.5-0.3,1-0.7,1.5c-0.4,0.5-0.9,0.9-1.6,1.1c-0.7,0.3-1.5,0.4-2.4,0.4c-1.1,0-2-0.2-2.7-0.5c-0.7-0.4-1.3-0.8-1.6-1.4
		c-0.3-0.6-0.5-1.4-0.5-2.3l0-1.2v-3.8c0-1,0-1.6-0.1-1.9c-0.1-0.3-0.2-0.5-0.4-0.6c-0.2-0.1-0.6-0.2-1.2-0.2l-0.3,0v-0.4h5.5v0.4
		h-0.2c-0.6,0-1,0.1-1.2,0.1c-0.2,0.1-0.3,0.3-0.4,0.5c-0.1,0.3-0.1,0.9-0.1,1.9l0,3.8c0,1.3,0.1,2.3,0.2,2.8c0.1,0.6,0.5,1,1,1.5
		c0.6,0.4,1.3,0.6,2.3,0.6c0.7,0,1.4-0.1,2-0.4c0.6-0.3,1.1-0.6,1.3-1c0.3-0.4,0.5-0.8,0.5-1.3c0.1-0.4,0.1-1.1,0.1-2.1v-4.1
		c0-0.7,0-1.2-0.1-1.4c-0.1-0.3-0.2-0.5-0.5-0.6c-0.3-0.2-0.7-0.3-1.2-0.3V237.3z"/>
	
		<path style="clip-path:url(#SVGID_00000013872994879777022870000003238492021787542684_);fill-rule:evenodd;clip-rule:evenodd;" d="
		M313.5,243.1c0.4,0,0.9,0,1.4-0.1c0.5,0,0.9-0.1,1.2-0.2c0.3-0.1,0.6-0.3,0.8-0.5c0.2-0.2,0.4-0.5,0.5-0.8c0.1-0.3,0.2-0.7,0.2-1.2
		c0-0.8-0.2-1.5-0.6-2c-0.4-0.5-1.3-0.8-2.8-0.8c-0.2,0-0.5,0-0.8,0V243.1z M322.6,249.3h-3.2c-0.6-0.4-1.5-1.5-2.6-3.2
		c-0.4-0.5-0.8-1.1-1.2-1.6c-0.4-0.5-0.7-0.8-0.8-0.9c-0.2-0.1-0.4-0.2-0.7-0.2l-0.5,0v2.7c0,1,0,1.6,0.1,1.9c0,0.3,0.2,0.5,0.4,0.6
		c0.2,0.1,0.6,0.2,1.1,0.2h0.6v0.4h-5.8v-0.4h0.4c0.5,0,0.9-0.1,1.1-0.2c0.2-0.1,0.3-0.3,0.4-0.6c0.1-0.3,0.1-0.9,0.1-1.9l0-5.9
		c0-1,0-1.6-0.1-1.9c-0.1-0.3-0.2-0.5-0.4-0.6c-0.2-0.1-0.6-0.2-1.2-0.2l-0.2,0v-0.4l1.7-0.1c1.2-0.1,2.1-0.1,2.7-0.1
		c1.2,0,2.1,0.1,2.8,0.3c0.7,0.2,1.3,0.6,1.8,1.1c0.4,0.5,0.7,1.1,0.7,1.7c0,0.8-0.3,1.5-0.9,2c-0.6,0.6-1.4,0.9-2.6,1
		c0.5,0.2,1.3,1.1,2.4,2.6c0.9,1.2,1.6,2,2.2,2.4c0.5,0.4,1.1,0.6,1.9,0.6V249.3z"/>
	
		<path style="clip-path:url(#SVGID_00000013872994879777022870000003238492021787542684_);fill-rule:evenodd;clip-rule:evenodd;" d="
		M332.3,244.5l-2.1-5.1l-2.1,5.1H332.3z M332.5,244.9h-4.6l-0.3,0.8c-0.5,1.1-0.7,1.8-0.7,2.2c0,0.4,0.1,0.6,0.4,0.8
		c0.3,0.2,0.6,0.3,0.9,0.3v0.4h-3.6v-0.4c0.5-0.1,0.9-0.3,1.2-0.6c0.3-0.3,0.6-0.9,0.9-1.9c0-0.1,0.2-0.4,0.4-1l3.5-8.4h0.3l4,9.6
		l0.5,1.3c0.1,0.3,0.3,0.5,0.5,0.7c0.2,0.2,0.5,0.3,1,0.3v0.4h-4.7v-0.4c0.6,0,1,0,1.2-0.1c0.2-0.1,0.3-0.3,0.3-0.5
		c0-0.1-0.1-0.5-0.4-1.2L332.5,244.9z"/>
	
		<path style="clip-path:url(#SVGID_00000013872994879777022870000003238492021787542684_);fill-rule:evenodd;clip-rule:evenodd;" d="
		M350.2,249.6l-8.5-11.3v8.4c0,0.7,0,1.2,0.1,1.4c0.1,0.2,0.3,0.4,0.6,0.6c0.3,0.2,0.8,0.3,1.4,0.3v0.4h-4.5v-0.4
		c0.6,0,1-0.1,1.3-0.3c0.3-0.2,0.5-0.4,0.5-0.5c0.1-0.2,0.1-0.7,0.1-1.4v-6.4c0-0.9,0-1.5-0.1-1.9c-0.1-0.3-0.2-0.5-0.4-0.6
		c-0.2-0.1-0.6-0.1-1.2-0.1l0-0.4h3.6l7.1,9.4v-7.2c0-0.5-0.1-0.9-0.2-1.1c-0.1-0.2-0.3-0.4-0.7-0.5c-0.3-0.1-0.7-0.2-1.2-0.2l0-0.4
		h4.4v0.4c-0.5,0-0.9,0.1-1.2,0.3c-0.3,0.2-0.5,0.3-0.6,0.6c-0.1,0.2-0.1,0.6-0.1,1.1v10H350.2z"/>
	
		<path style="clip-path:url(#SVGID_00000013872994879777022870000003238492021787542684_);fill-rule:evenodd;clip-rule:evenodd;" d="
		M366.1,244.8h0.4v4.2h-0.4c-0.1-0.5-0.3-0.9-0.6-1.3c-1.1,1.2-2.4,1.8-4.1,1.8c-1.7,0-3.2-0.5-4.3-1.7c-1.1-1.1-1.7-2.6-1.7-4.4
		c0-1.2,0.3-2.3,0.8-3.4c0.5-1.1,1.2-1.8,2.1-2.3c0.9-0.5,1.9-0.8,3-0.8c0.9,0,1.7,0.2,2.4,0.6c0.7,0.4,1.3,0.8,1.6,1.2
		c0.3-0.5,0.4-1,0.5-1.6h0.4l0.1,4.6h-0.4c-0.3-1.6-0.8-2.8-1.6-3.4c-0.8-0.6-1.7-0.9-2.8-1c-1.3,0-2.3,0.5-3,1.5
		c-0.7,1-1.1,2.5-1.1,4.4c0,1.8,0.4,3.2,1.2,4.2c0.8,1,1.8,1.4,3,1.4c0.6,0,1.3-0.2,2-0.5c0.7-0.3,1.2-0.8,1.6-1.6
		C365.8,246.2,366,245.5,366.1,244.8"/>
	
		<path style="clip-path:url(#SVGID_00000013872994879777022870000003238492021787542684_);fill-rule:evenodd;clip-rule:evenodd;" d="
		M380.1,245.6h0.4l-0.3,3.8h-10v-0.4h0.2c0.6,0,1-0.1,1.2-0.2c0.2-0.2,0.3-0.4,0.3-0.6c0-0.3,0.1-0.9,0.1-1.9l0-5.9
		c0-0.9,0-1.5-0.1-1.8c0-0.3-0.2-0.5-0.3-0.6c-0.2-0.1-0.6-0.2-1.1-0.2v-0.4h8.6l0.3,3H379c-0.2-0.8-0.4-1.4-0.7-1.8
		c-0.3-0.4-0.6-0.6-1-0.7c-0.4-0.1-1-0.1-1.8-0.1l-1.7,0v5.1h1.3c0.6,0,1-0.1,1.2-0.1c0.2-0.1,0.4-0.2,0.5-0.5
		c0.1-0.2,0.1-0.6,0.1-1.2l0.4,0v4.1h-0.4c0-0.7-0.1-1.1-0.2-1.3c-0.1-0.2-0.3-0.4-0.5-0.4c-0.2-0.1-0.6-0.1-1.1-0.1l-1.3,0v2.9
		c0,1.4,0.1,2.3,0.3,2.5c0.2,0.3,0.7,0.4,1.5,0.4h0.9c0.6,0,1.2-0.1,1.6-0.2c0.4-0.2,0.8-0.5,1.2-1
		C379.6,247.2,379.9,246.5,380.1,245.6"/>
</g>
</svg>
