<?xml version="1.0" standalone="no"?>
<!DOCTYPE svg PUBLIC "-//W3C//DTD SVG 1.0//EN" "http://www.w3.org/TR/2001/REC-SVG-20010904/DTD/svg10.dtd">
<svg xmlns="http://www.w3.org/2000/svg" xmlns:xlink="http://www.w3.org/1999/xlink" id="body_1" width="1024" height="768">

<g transform="matrix(1.9248121 0 0 1.9248121 -0 4.8120303)">
	<g>
        <path d="M316.7 194.7C 319.1 191.7 322 188.59999 325.6 185.2C 329.2 181.7 332.4 179 335.6 176.7C 339 174.09999 343.4 174 346.80002 176.7C 349.90002 179.09999 353.1 181.8 356.7 185.3C 360.30002 188.8 363.2 191.90001 365.6 194.8C 368.5 198.3 368.4 202 365.6 205.6C 363.2 208.6 360.30002 211.70001 356.7 215.20001C 353.1 218.70001 349.90002 221.40001 346.80002 223.70001C 343.30002 226.30002 339.00003 226.30002 335.6 223.70001C 332.5 221.30002 329.30002 218.6 325.7 215.20001C 322.1 211.70001 319.2 208.6 316.80002 205.6C 314 202.1 313.9 197.9 316.7 194.7" stroke="none" fill="#133880" fill-rule="nonzero" />
        <path d="M314.2 200.8C 314.5 202.5 315.30002 203.90001 316.6 205.5C 319.1 208.5 322 211.6 325.6 215.1C 329.2 218.5 332.4 221.3 335.5 223.6C 336.9 224.70001 338.6 225.3 340.2 225.5C 336.90002 224.7 332 219.6 334.6 210.4C 337 201.7 341 195.29999 343 191.29999L343 191.29999L343 191.19998C 347 183.69998 341.3 181.09998 336.9 184.89998C 340.1 180.59998 347.3 173.49998 349.8 170.89998C 352.3 168.29997 350.5 165.59998 345.5 166.99998C 335.3 170.09999 322.5 179.69998 316.6 190.99998C 314.7 194.6 313.9 197.9 314.2 200.8" stroke="none" fill="#E30613" fill-rule="nonzero" />
        <path d="M166.4 221.4C 163.4 221.4 160.59999 220.9 157.9 219.9C 155.29999 218.9 153 217.5 151 215.59999C 149.1 213.79999 147.6 211.49998 146.5 208.9C 145.4 206.2 144.8 203.29999 144.8 200C 144.8 196.8 145.40001 193.9 146.5 191.1C 147.6 188.40001 149.2 186 151.2 184C 153.2 182 155.5 180.5 158.3 179.5C 161.1 178.4 164 177.9 167.2 177.9C 169.5 177.9 171.59999 178.2 173.4 178.7C 175.29999 179.2 176.9 179.9 178.2 180.59999L178.2 180.59999L180 178.99998L182.5 178.99998L182.8 193.99998L180.2 193.99998C 178.7 189.39998 177 185.99998 175 183.89998C 173 181.69998 170.5 180.69998 167.6 180.69998C 164 180.69998 161.20001 182.29999 159.3 185.49998C 157.40001 188.69998 156.5 193.19998 156.5 198.99998C 156.5 202.29999 156.8 205.09999 157.5 207.39998C 158.2 209.69998 159 211.59998 160.1 212.99998C 161.20001 214.49998 162.5 215.59999 164.1 216.29999C 165.6 216.99998 167.3 217.29999 169.20001 217.29999C 171.90001 217.29999 174.30002 216.59999 176.40001 215.09999C 178.50002 213.59999 180.50002 211.4 182.20001 208.4L182.20001 208.4L184.70001 209.9C 183.90001 211.59999 182.90001 213.09999 181.90001 214.5C 180.8 215.8 179.6 217 178.20001 218C 176.70001 219.1 175.00002 219.9 173.1 220.5C 171.1 221.1 168.9 221.4 166.4 221.4" stroke="none" fill="#000000" fill-rule="nonzero" />
        <path d="M222.3 220.3L204.8 220.3L204.8 218.2C 205.2 218.2 205.6 218.09999 206.2 218C 206.7 217.9 207.09999 217.8 207.4 217.7C 207.79999 217.5 208.09999 217.2 208.2 216.8C 208.4 216.40001 208.5 215.8 208.5 215L208.5 215L208.5 201.4C 208.5 199.4 208.1 197.9 207.4 196.9C 206.7 195.9 205.59999 195.4 204.2 195.4C 203.4 195.4 202.7 195.5 202 195.7C 201.3 195.9 200.7 196.3 200.1 196.7C 199.5 197.09999 199.1 197.5 198.70001 197.9C 198.40001 198.29999 198.1 198.7 197.90001 199L197.90001 199L197.90001 214.6C 197.90001 215.3 198.00002 215.90001 198.20001 216.3C 198.40001 216.7 198.70001 217 199.20001 217.3C 199.50002 217.5 199.90001 217.6 200.30002 217.8C 200.80002 217.90001 201.20001 218 201.70001 218.1L201.70001 218.1L201.70001 220.20001L184 220.20001L184 218.1C 184.5 218.1 185 218 185.5 217.90001C 186 217.8 186.4 217.70001 186.8 217.6C 187.40001 217.40001 187.8 217 188.1 216.6C 188.3 216.20001 188.40001 215.6 188.40001 214.90001L188.40001 214.90001L188.40001 182.5C 188.40001 181.9 188.3 181.2 188.00002 180.5C 187.70001 179.8 187.30002 179.3 186.80002 178.9C 186.40002 178.7 185.80002 178.5 185.10002 178.29999C 184.40002 178.09999 183.70003 177.99998 183.10002 177.99998L183.10002 177.99998L183.10002 175.89998L197.50002 175.09998L197.90001 175.59998L197.90001 195.59998L198.00002 195.59998C 198.70001 194.89998 199.40001 194.39998 200.00002 193.79997C 200.60002 193.29997 201.30002 192.69997 202.20001 192.19997C 202.90001 191.69997 203.80002 191.29997 205.00002 190.99997C 206.20001 190.69997 207.40001 190.49997 208.70001 190.49997C 211.80002 190.49997 214.20001 191.39996 215.80002 193.19997C 217.40002 194.99997 218.20001 197.39996 218.20001 200.29997L218.20001 200.29997L218.20001 214.49997C 218.20001 215.19997 218.30002 215.79997 218.50002 216.19997C 218.70001 216.59996 219.10002 216.99997 219.70001 217.19997C 220.1 217.39996 220.40001 217.49997 220.90001 217.59996C 221.3 217.69997 221.90001 217.79996 222.50002 217.89996L222.50002 217.89996L222.50002 220.3L222.3 220.3z" stroke="none" fill="#000000" fill-rule="nonzero" />
        <path d="M243.7 215C 244.09999 213.9 244.4 212.6 244.59999 211C 244.79999 209.5 244.9 207.6 244.9 205.6C 244.9 204.20001 244.79999 202.70001 244.59999 201C 244.4 199.3 244.09999 197.9 243.7 196.9C 243.2 195.7 242.59999 194.7 241.8 194C 241 193.3 239.90001 193 238.7 193C 237.3 193 236.2 193.4 235.4 194.1C 234.59999 194.90001 234 195.8 233.5 197C 233.1 198.1 232.8 199.4 232.7 200.9C 232.5 202.4 232.5 203.9 232.5 205.5C 232.5 207.6 232.6 209.4 232.7 210.8C 232.8 212.2 233.2 213.6 233.7 215C 234.09999 216.2 234.8 217.2 235.59999 217.9C 236.4 218.59999 237.49998 218.9 238.79999 218.9C 239.99998 218.9 240.99998 218.59999 241.79999 217.9C 242.6 217.2 243.2 216.3 243.7 215M251.2 194.9C 252.59999 196.2 253.7 197.79999 254.5 199.7C 255.3 201.59999 255.6 203.59999 255.6 205.7C 255.6 207.8 255.20001 209.9 254.5 211.8C 253.8 213.7 252.7 215.3 251.2 216.7C 249.7 218.2 247.8 219.3 245.7 220C 243.59999 220.8 241.2 221.2 238.4 221.2C 236 221.2 233.9 220.9 231.9 220.2C 229.9 219.5 228.2 218.5 226.59999 217.09999C 225.09999 215.79999 223.99998 214.2 223.09999 212.29999C 222.2 210.4 221.79999 208.19998 221.79999 205.9C 221.79999 203.59999 222.19998 201.5 222.9 199.7C 223.7 197.9 224.79999 196.3 226.29999 194.9C 227.69998 193.5 229.49998 192.5 231.59999 191.79999C 233.7 190.99998 236.09999 190.69998 238.7 190.69998C 241.4 190.69998 243.8 191.09998 245.9 191.79999C 247.9 192.5 249.7 193.5 251.2 194.9" stroke="none" fill="#000000" fill-rule="nonzero" />
        <path d="M273.5 220.3L255.3 220.3L255.3 218.2C 255.8 218.2 256.3 218.09999 256.8 218C 257.3 217.9 257.69998 217.8 258.09998 217.7C 258.69998 217.5 259.09998 217.09999 259.39996 216.7C 259.59998 216.3 259.69995 215.7 259.69995 215L259.69995 215L259.69995 182.8C 259.69995 182.1 259.49994 181.40001 259.19995 180.8C 258.89996 180.2 258.49994 179.7 257.99994 179.3C 257.59995 179 256.99994 178.8 256.19995 178.6C 255.39995 178.40001 254.69995 178.20001 254.09995 178.20001L254.09995 178.20001L254.09995 176.1L268.69995 175.3L269.09995 175.8L269.09995 214.6C 269.09995 215.3 269.19995 215.90001 269.49994 216.3C 269.79993 216.7 270.19995 217.1 270.69995 217.3C 271.09995 217.5 271.49994 217.6 271.89996 217.8C 272.29996 217.90001 272.79996 218 273.39996 218.1L273.39996 218.1L273.39996 220.3L273.5 220.3z" stroke="none" fill="#000000" fill-rule="nonzero" />
        <path d="M291.5 204.5C 290.4 204.9 289.3 205.3 288.3 205.8C 287.19998 206.3 286.4 206.8 285.69998 207.3C 284.99997 207.8 284.4 208.5 283.99997 209.40001C 283.59998 210.20001 283.39996 211.20001 283.39996 212.40001C 283.39996 213.90001 283.69995 215.00002 284.39996 215.70001C 285.09998 216.40001 285.99997 216.70001 286.99997 216.70001C 288.09998 216.70001 288.89996 216.50002 289.59998 216.1C 290.3 215.70001 290.89996 215.1 291.39996 214.5L291.39996 214.5L291.5 204.5zM306 219.7C 305.1 220.09999 304.1 220.4 303 220.7C 301.8 221 300.6 221.2 299.3 221.2C 296.9 221.2 295.19998 220.9 294 220.2C 292.9 219.5 292.1 218.5 291.7 217.2L291.7 217.2L291.5 217.2C 290.8 217.9 290.2 218.4 289.6 218.9C 289 219.4 288.4 219.79999 287.7 220.09999C 286.80002 220.49998 285.90002 220.79999 285.1 220.99998C 284.30002 221.19998 283.1 221.29999 281.6 221.29999C 279.4 221.29999 277.4 220.59999 275.9 219.29999C 274.3 217.99998 273.5 216.19998 273.5 213.99998C 273.5 212.69998 273.7 211.69998 274 210.79999C 274.4 209.9 274.8 209.09999 275.5 208.49998C 276.1 207.89998 276.7 207.39998 277.5 206.99998C 278.3 206.59999 279.1 206.19998 280 205.89998C 281.7 205.29997 283.8 204.59998 286.3 203.89998C 288.69998 203.19998 290.5 202.59998 291.59998 201.99998L291.59998 201.99998L291.59998 199.19998C 291.59998 198.69998 291.59998 198.09998 291.49997 197.29999C 291.39996 196.49998 291.29996 195.79999 290.99997 195.29999C 290.69998 194.69998 290.29996 194.19998 289.69998 193.69998C 289.09998 193.29999 288.4 193.09998 287.4 193.09998C 286.6 193.09998 285.8 193.19998 285.3 193.49997C 284.69998 193.69997 284.3 193.99997 283.9 194.19997C 284 194.59996 284.1 195.19997 284.4 195.99997C 284.69998 196.79997 284.8 197.59998 284.8 198.29997C 284.8 198.59998 284.69998 199.09998 284.5 199.49997C 284.3 199.99997 284.1 200.39996 283.7 200.69997C 283.30002 201.09996 282.80002 201.39996 282.2 201.59996C 281.7 201.79996 280.80002 201.89996 279.7 201.89996C 278.1 201.89996 276.80002 201.49997 276 200.69997C 275.2 199.89996 274.8 198.89996 274.8 197.59996C 274.8 196.49995 275.19998 195.49995 276.09998 194.69997C 276.99997 193.79997 277.99997 193.09996 279.3 192.59996C 280.5 191.99995 281.9 191.59996 283.5 191.29996C 285.1 190.99995 286.6 190.79996 287.9 190.79996C 289.8 190.79996 291.5 190.89996 293.1 191.19995C 294.7 191.39995 296.1 191.89995 297.30002 192.59995C 298.50003 193.29994 299.40002 194.29994 300.1 195.59995C 300.80002 196.89995 301.2 198.59995 301.2 200.59995C 301.2 202.79994 301.2 205.39995 301.1 208.39995C 301 211.39995 301 213.39995 301 214.29994C 301 215.19994 301.1 215.89995 301.4 216.39995C 301.69998 216.89995 302.1 217.29994 302.6 217.49995C 302.9 217.69995 303.4 217.79996 304.1 217.79996C 304.80002 217.79996 305.5 217.79996 306 217.79996L306 217.79996L306 219.7z" stroke="none" fill="#000000" fill-rule="nonzero" />
        <path d="M429.7 220.3L408.2 220.3L408.2 218.1C 408.80002 218 409.6 218 410.5 217.8C 411.4 217.7 412.1 217.5 412.4 217.40001C 413.1 217.1 413.6 216.70001 413.9 216.3C 414.19998 215.8 414.3 215.2 414.3 214.5L414.3 214.5L414.3 184.9L400.69998 219.7L397.19998 219.7C 396.99997 219.09999 396.59998 217.9 395.9 216C 395.3 214.2 394.69998 212.7 394.3 211.6L394.3 211.6L384.3 184.40001L384.3 208.50002C 384.3 210.80002 384.4 212.60002 384.69998 213.80002C 384.99997 215.00002 385.49997 215.90002 386.19998 216.40002C 386.69998 216.80002 387.49997 217.20003 388.69998 217.50003C 389.9 217.90002 390.8 218.10004 391.19998 218.10004L391.19998 218.10004L391.19998 220.30003L374.19998 220.30003L374.19998 218.10004C 374.69998 218.00003 375.4 217.90004 376.49997 217.70004C 377.59998 217.50005 378.39996 217.10004 379.09998 216.70004C 379.8 216.20004 380.39996 215.30005 380.59998 214.10004C 380.89996 212.80003 380.99997 211.10004 380.99997 208.80003L380.99997 208.80003L380.99997 189.20003C 380.99997 188.00003 380.89996 187.00003 380.59998 186.20003C 380.3 185.40002 379.89996 184.80003 379.3 184.30003C 378.59998 183.70003 377.8 183.40004 377 183.20003C 376.2 183.00003 375.4 182.90002 374.6 182.90002L374.6 182.90002L374.6 180.70003L392.80002 180.70003L402.6 206.90002L410.80002 185.60002C 411.1 184.80002 411.30002 183.90002 411.6 182.80002C 411.9 181.70001 412 181.00002 412 180.70001L412 180.70001L429.6 180.70001L429.6 182.90001C 429 182.90001 428.4 183.00002 427.7 183.1C 427.1 183.20001 426.40002 183.40001 425.80002 183.5C 425.1 183.7 424.6 184.1 424.30002 184.6C 424.1 185.1 424.00003 185.70001 424.00003 186.3L424.00003 186.3L424.00003 214.40001C 424.00003 215.1 424.10004 215.6 424.30002 216.1C 424.50003 216.5 425.00003 216.90001 425.80002 217.3C 426.2 217.5 426.80002 217.6 427.6 217.8C 428.5 217.90001 429.1 218.1 429.6 218.1L429.6 218.1L429.6 220.3L429.7 220.3z" stroke="none" fill="#000000" fill-rule="nonzero" />
        <path d="M448.3 221.4C 445.9 221.4 443.59998 221.09999 441.5 220.5C 439.4 219.9 437.6 219.2 436.2 218.4L436.2 218.4L434.30002 220.4L431.90002 220.4L431.50003 206.09999L433.90002 206.09999C 434.40002 207.49998 435.10004 208.9 436.00003 210.4C 436.80002 211.9 437.80002 213.29999 438.90002 214.5C 440.00003 215.7 441.30002 216.8 442.7 217.5C 444.1 218.3 445.80002 218.7 447.6 218.7C 450.1 218.7 452.1 218.09999 453.4 216.9C 454.8 215.7 455.4 214.09999 455.4 212.2C 455.4 210.7 454.8 209.4 453.69998 208.3C 452.59998 207.2 450.8 206.3 448.4 205.6C 446.8 205.1 445.4 204.6 444.1 204.20001C 442.80002 203.80002 441.6 203.30002 440.4 202.90001C 437.69998 201.8 435.8 200.3 434.5 198.3C 433.2 196.3 432.6 194.1 432.6 191.7C 432.6 190.2 432.9 188.7 433.6 187.3C 434.30002 185.90001 435.2 184.6 436.5 183.40001C 437.7 182.3 439.3 181.50002 441.2 180.8C 443.1 180.1 445.2 179.8 447.5 179.8C 449.7 179.8 451.8 180.1 453.7 180.7C 455.6 181.3 457.1 181.9 458.2 182.5L458.2 182.5L459.90002 180.8L462.30002 180.8L462.50003 194.3L460.10004 194.3C 459.50003 192.90001 458.90002 191.40001 458.10004 189.90001C 457.40002 188.40001 456.60004 187.1 455.70004 186.1C 454.80005 185 453.70004 184.20001 452.50003 183.5C 451.30002 182.8 449.90002 182.5 448.30002 182.5C 446.30002 182.5 444.6 183.1 443.40002 184.2C 442.10004 185.3 441.50003 186.7 441.50003 188.4C 441.50003 190 442.00003 191.29999 443.10004 192.29999C 444.20004 193.29999 445.90002 194.19998 448.30005 194.9C 449.70004 195.4 451.10004 195.79999 452.50006 196.29999C 453.90005 196.79999 455.20007 197.19998 456.30005 197.59999C 459.00006 198.59999 461.00006 200.09999 462.40005 201.9C 463.80005 203.7 464.50006 206 464.50006 208.7C 464.50006 210.4 464.10007 212.09999 463.30005 213.7C 462.50006 215.3 461.40005 216.59999 460.10004 217.7C 458.60004 218.9 456.90002 219.8 454.90002 220.4C 453.1 221 450.9 221.3 448.3 221.4" stroke="none" fill="#000000" fill-rule="nonzero" />
        <path d="M88 200.1C 84.2 198.6 81.5 196.5 82.1 191.20001C 82.9 184.1 94.1 175.90001 97.7 171.90001C 100.2 169.00002 100.799995 162.1 100.799995 162.1C 100.799995 162.1 104.49999 169.90001 100.2 176.3C 98.399994 178.90001 89.5 187.6 87.6 193C 86.9 195.1 86.6 197.8 88 200.1" stroke="none" fill="#E30613" fill-rule="nonzero" />
        <path d="M81.6 193.4C 77.799995 191.79999 74.799995 189.2 75.5 183.9C 76.4 176.79999 87.8 168.79999 91.4 164.9C 94 162.09999 94.700005 155.2 94.700005 155.2C 94.700005 155.2 98.3 163 93.8 169.4C 92.1 172 83 180.5 81 185.9C 80.3 188 79.8 190.7 81.6 193.4" stroke="none" fill="#E30613" fill-rule="nonzero" />
        <path d="M106.3 194.3C 110.100006 195.8 112.8 197.90001 112.200005 203.2C 111.4 210.3 100.200005 218.5 96.600006 222.5C 94.100006 225.3 93.50001 232.3 93.50001 232.3C 93.50001 232.3 89.80001 224.5 94.100006 218.1C 95.90001 215.5 104.8 206.8 106.700005 201.40001C 107.4 199.3 107.8 196.7 106.3 194.3" stroke="none" fill="#E30613" fill-rule="nonzero" />
        <path d="M112.7 201C 116.5 202.6 119.5 205.2 118.799995 210.5C 117.899994 217.6 106.49999 225.6 102.899994 229.5C 100.299995 232.3 99.59999 239.2 99.59999 239.2C 99.59999 239.2 95.99999 231.4 100.49999 225C 102.299995 222.4 111.399994 213.8 113.399994 208.5C 114 206.4 114.5 203.8 112.7 201" stroke="none" fill="#E30613" fill-rule="nonzero" />
        <path d="M100.1 206.4C 98.6 210.2 96.5 212.9 91.2 212.29999C 84.1 211.49998 75.899994 200.29999 71.899994 196.69998C 68.99999 194.19998 62.099995 193.59998 62.099995 193.59998C 62.099995 193.59998 69.899994 189.89998 76.299995 194.19998C 78.899994 195.99998 87.6 204.89998 93 206.79999C 95 207.4 97.7 207.8 100.1 206.4" stroke="none" fill="#133880" fill-rule="nonzero" />
        <path d="M93.4 212.7C 91.8 216.5 89.200005 219.5 83.9 218.8C 76.8 217.90001 68.8 206.5 64.9 202.90001C 62.100002 200.3 55.2 199.6 55.2 199.6C 55.2 199.6 63 196 69.4 200.5C 72 202.3 80.5 211.4 85.9 213.4C 87.9 214.1 90.6 214.6 93.4 212.7" stroke="none" fill="#133880" fill-rule="nonzero" />
        <path d="M94.3 188C 95.8 184.2 97.9 181.5 103.200005 182.1C 110.3 182.90001 118.50001 194.1 122.5 197.70001C 125.4 200.20001 132.3 200.80002 132.3 200.80002C 132.3 200.80002 124.5 204.50002 118.100006 200.20001C 115.50001 198.40001 106.8 189.50002 101.40001 187.6C 99.3 187 96.6 186.6 94.3 188" stroke="none" fill="#133880" fill-rule="nonzero" />
        <path d="M101 181.7C 102.6 177.9 105.2 174.9 110.5 175.59999C 117.6 176.49998 125.6 187.9 129.5 191.49998C 132.3 194.09999 139.2 194.79999 139.2 194.79999C 139.2 194.79999 131.4 198.4 125 193.9C 122.4 192.09999 113.9 183 108.5 181C 106.4 180.3 103.7 179.8 101 181.7" stroke="none" fill="#133880" fill-rule="nonzero" />
        <path d="M158.1 244.2L163.3 244.2L163.3 244.59999C 162.7 244.59999 162.3 244.7 162.1 244.79999C 161.90001 244.9 161.8 245.09999 161.70001 245.4C 161.6 245.7 161.6 246.29999 161.6 247.4L161.6 247.4L161.6 248.7C 161.5 248.7 161.3 248.7 161.20001 248.7C 160.70001 248.7 160.1 248.8 159.40001 249.09999C 158.40001 249.49998 157.50002 249.7 156.6 249.7C 154.90001 249.7 153.40001 249.09999 152.3 248C 151.2 246.9 150.6 245.4 150.6 243.7C 150.6 242 151.1 240.5 152.20001 239.2C 153.30002 237.9 154.80002 237.3 156.70001 237.3C 158.30002 237.3 159.6 237.90001 160.70001 239.1C 160.90001 238.70001 161.00002 238.20001 161.1 237.8L161.1 237.8L161.5 237.8L161.5 241.8L161.1 241.8C 160.90001 240.6 160.5 239.6 159.70001 238.90001C 158.90001 238.20001 158.00002 237.8 156.90001 237.8C 155.8 237.8 154.8 238.2 153.90001 239.1C 153.1 239.90001 152.6 241.40001 152.6 243.6C 152.6 245.70001 153 247.3 153.8 248.20001C 154.6 249.1 155.6 249.50002 156.8 249.50002C 157.40001 249.50002 158 249.40001 158.5 249.10002C 159 248.80002 159.3 248.50002 159.5 248.20003C 159.7 247.80003 159.8 247.40002 159.8 246.80003C 159.8 246.20003 159.8 245.70003 159.7 245.50003C 159.59999 245.30003 159.5 245.10004 159.3 245.10004C 159.1 245.00003 158.8 245.00003 158.3 245.00003L158.3 245.00003L158 245.00003L158 244.2L158.1 244.2z" stroke="none" fill="#000000" fill-rule="nonzero" />
        <path d="M176.1 245.6L176.5 245.6L176.3 249.40001L166.3 249.40001L166.3 249.00002L166.6 249.00002C 167.20001 249.00002 167.6 248.90001 167.8 248.80002C 168 248.60002 168.1 248.40002 168.1 248.20001C 168.1 247.90001 168.20001 247.30002 168.20001 246.30002L168.20001 246.30002L168.20001 240.40002C 168.20001 239.50003 168.20001 238.90002 168.1 238.60002C 168.1 238.30002 167.90001 238.10002 167.8 238.00002C 167.6 237.90001 167.2 237.80002 166.7 237.80002L166.7 237.80002L166.7 237.40002L175.3 237.40002L175.6 240.40002L175 240.40002C 174.8 239.60002 174.6 239.00003 174.3 238.60002C 174 238.20003 173.7 238.00002 173.3 237.90002C 172.90001 237.80002 172.3 237.80002 171.5 237.80002L171.5 237.80002L169.8 237.80002L169.8 242.90002L171.1 242.90002C 171.70001 242.90002 172.1 242.80002 172.3 242.80002C 172.5 242.70001 172.7 242.60002 172.8 242.30002C 172.90001 242.10002 172.90001 241.70001 172.90001 241.10002L172.90001 241.10002L173.3 241.10002L173.3 245.20003L172.90001 245.20003C 172.90001 244.50003 172.8 244.10002 172.70001 243.90002C 172.6 243.70003 172.40001 243.50003 172.20001 243.50003C 172.00002 243.40002 171.6 243.40002 171.1 243.40002L171.1 243.40002L169.8 243.40002L169.8 246.30002C 169.8 247.70001 169.90001 248.60002 170.1 248.80002C 170.3 249.10002 170.8 249.20001 171.6 249.20001L171.6 249.20001L172.5 249.20001C 173.1 249.20001 173.7 249.1 174.1 249.00002C 174.5 248.80002 174.90001 248.50002 175.3 248.00002C 175.6 247.2 175.9 246.5 176.1 245.6" stroke="none" fill="#000000" fill-rule="nonzero" />
        <path d="M190.3 249.6L181.8 238.3L181.8 246.7C 181.8 247.4 181.8 247.9 181.90001 248.09999C 182.00002 248.29999 182.20001 248.49998 182.50002 248.7C 182.80002 248.9 183.30002 249 183.90001 249L183.90001 249L183.90001 249.4L179.40001 249.4L179.40001 249C 180.00002 249 180.40001 248.9 180.70001 248.7C 181.00002 248.5 181.20001 248.3 181.20001 248.2C 181.30002 248 181.30002 247.5 181.30002 246.8L181.30002 246.8L181.30002 240.40001C 181.30002 239.50002 181.30002 238.90001 181.20001 238.50002C 181.1 238.20001 181.00002 238.00002 180.80002 237.90001C 180.60002 237.8 180.20001 237.8 179.60002 237.8L179.60002 237.8L179.60002 237.40001L183.20003 237.40001L190.30003 246.8L190.30003 239.6C 190.30003 239.1 190.20003 238.70001 190.10004 238.5C 190.00003 238.3 189.80003 238.1 189.40004 238C 189.10004 237.9 188.70004 237.8 188.20004 237.8L188.20004 237.8L188.20004 237.40001L192.60004 237.40001L192.60004 237.8C 192.10004 237.8 191.70004 237.90001 191.40004 238.1C 191.10004 238.3 190.90004 238.40001 190.80003 238.70001C 190.70003 238.90001 190.70003 239.30002 190.70003 239.80002L190.70003 239.80002L190.70003 249.80002L190.3 249.80002L190.3 249.6z" stroke="none" fill="#000000" fill-rule="nonzero" />
        <path d="M205.2 245.6L205.59999 245.6L205.29999 249.40001L195.29999 249.40001L195.29999 249.00002L195.59999 249.00002C 196.2 249.00002 196.59999 248.90001 196.79999 248.80002C 196.99998 248.60002 197.09999 248.40002 197.09999 248.20001C 197.09999 247.90001 197.2 247.30002 197.2 246.30002L197.2 246.30002L197.2 240.40002C 197.2 239.50003 197.2 238.90002 197.09999 238.60002C 197.09999 238.30002 196.9 238.10002 196.79999 238.00002C 196.59999 237.90001 196.19998 237.80002 195.69998 237.80002L195.69998 237.80002L195.69998 237.40002L204.29999 237.40002L204.59999 240.40002L204.2 240.40002C 204 239.60002 203.8 239.00003 203.5 238.60002C 203.2 238.20003 202.9 238.00002 202.5 237.90002C 202.1 237.80002 201.5 237.80002 200.7 237.80002L200.7 237.80002L199 237.80002L199 242.90002L200.3 242.90002C 200.90001 242.90002 201.3 242.80002 201.5 242.80002C 201.7 242.70001 201.9 242.60002 202 242.30002C 202.1 242.10002 202.1 241.70001 202.1 241.10002L202.1 241.10002L202.5 241.10002L202.5 245.20003L202 245.20003C 202 244.50003 201.9 244.10002 201.8 243.90002C 201.7 243.70003 201.5 243.50003 201.3 243.50003C 201.1 243.40002 200.7 243.40002 200.2 243.40002L200.2 243.40002L198.9 243.40002L198.9 246.30002C 198.9 247.70001 199 248.60002 199.2 248.80002C 199.4 249.10002 199.9 249.20001 200.7 249.20001L200.7 249.20001L201.59999 249.20001C 202.2 249.20001 202.79999 249.1 203.2 249.00002C 203.59999 248.80002 204 248.50002 204.4 248.00002C 204.7 247.2 205 246.5 205.2 245.6" stroke="none" fill="#000000" fill-rule="nonzero" />
        <path d="M212.3 243.1C 212.7 243.1 213.2 243.1 213.7 243C 214.2 243 214.59999 242.9 214.9 242.8C 215.2 242.7 215.5 242.5 215.7 242.3C 215.9 242.1 216.09999 241.8 216.2 241.5C 216.3 241.2 216.4 240.8 216.4 240.3C 216.4 239.5 216.2 238.8 215.79999 238.3C 215.4 237.8 214.49998 237.5 212.99998 237.5C 212.79999 237.5 212.49998 237.5 212.19998 237.5L212.19998 237.5L212.19998 243.1L212.3 243.1zM221.4 249.3L218.2 249.3C 217.59999 248.90001 216.7 247.8 215.59999 246.1C 215.2 245.6 214.79999 245 214.4 244.5C 214 244 213.7 243.7 213.59999 243.6C 213.4 243.5 213.2 243.40001 212.9 243.40001L212.9 243.40001L212.4 243.40001L212.4 246.1C 212.4 247.1 212.4 247.70001 212.5 248C 212.5 248.3 212.7 248.5 212.9 248.6C 213.09999 248.70001 213.5 248.8 214 248.8L214 248.8L214.6 248.8L214.6 249.2L208.8 249.2L208.8 248.8L209.2 248.8C 209.7 248.8 210.09999 248.7 210.3 248.6C 210.5 248.5 210.6 248.3 210.7 248C 210.8 247.7 210.8 247.1 210.8 246.1L210.8 246.1L210.8 240.20001C 210.8 239.20001 210.8 238.6 210.7 238.30002C 210.59999 238.00002 210.5 237.80002 210.3 237.70001C 210.1 237.6 209.7 237.50002 209.1 237.50002L209.1 237.50002L208.90001 237.50002L208.90001 237.10002L210.6 237.00002C 211.70001 236.90001 212.70001 236.90001 213.3 236.90001C 214.5 236.90001 215.40001 237.00002 216.1 237.20001C 216.8 237.40001 217.40001 237.80002 217.8 238.30002C 218.2 238.80002 218.5 239.40002 218.5 240.00002C 218.5 240.80002 218.2 241.50002 217.6 242.00002C 217 242.60002 216.20001 242.90001 215 243.00002C 215.5 243.20001 216.3 244.10002 217.4 245.60002C 218.29999 246.80002 219 247.60002 219.5 248.00002C 220 248.40001 220.6 248.60002 221.3 248.60002L221.3 248.60002L221.3 249.3z" stroke="none" fill="#000000" fill-rule="nonzero" />
        <path d="M231.1 244.5L229 239.4L226.9 244.5L231.1 244.5zM231.3 244.9L226.7 244.9L226.4 245.7C 225.9 246.8 225.7 247.5 225.7 247.9C 225.7 248.29999 225.8 248.5 226.09999 248.7C 226.29999 248.9 226.7 249 226.99998 249L226.99998 249L226.99998 249.4L223.39998 249.4L223.39998 249C 223.89998 248.9 224.29997 248.7 224.59998 248.4C 224.89998 248.09999 225.19998 247.5 225.49997 246.5C 225.49997 246.4 225.69997 246.1 225.89996 245.5L225.89996 245.5L229.39996 237.1L229.69997 237.1L233.69997 246.70001L234.29997 248.00002C 234.39998 248.30002 234.59998 248.50002 234.79997 248.70001C 234.99997 248.90001 235.29997 249.00002 235.79997 249.00002L235.79997 249.00002L235.79997 249.40001L231.09998 249.40001L231.09998 249.00002C 231.69998 249.00002 232.09998 249.00002 232.29997 248.90001C 232.49997 248.8 232.59998 248.6 232.59998 248.40001C 232.59998 248.3 232.49997 247.90001 232.19998 247.20001L232.19998 247.20001L231.3 244.9z" stroke="none" fill="#000000" fill-rule="nonzero" />
        <path d="M248.6 245.8L248.5 249.40001L238.3 249.40001L238.3 249.00002L238.7 249.00002C 239.2 249.00002 239.59999 248.90001 239.8 248.80002C 240 248.70001 240.1 248.50002 240.2 248.20001C 240.3 247.90001 240.3 247.30002 240.3 246.30002L240.3 246.30002L240.3 240.40002C 240.3 239.40002 240.3 238.80002 240.2 238.50003C 240.09999 238.20003 240 238.00003 239.8 237.90002C 239.6 237.80002 239.2 237.70003 238.6 237.70003L238.6 237.70003L238.3 237.70003L238.3 237.30003L244.1 237.30003L244.1 237.70003L243.6 237.70003C 243 237.70003 242.6 237.80003 242.40001 237.80003C 242.20001 237.90004 242.1 238.10004 242.00002 238.30003C 241.90001 238.60004 241.90001 239.20003 241.90001 240.20003L241.90001 240.20003L241.90001 246.50003C 241.90001 247.40002 241.90001 247.90002 242.00002 248.10004C 242.10002 248.30003 242.20001 248.50003 242.40001 248.60004C 242.6 248.70004 243.1 248.80003 243.8 248.80003L243.8 248.80003L244.7 248.80003C 245.4 248.80003 246 248.70003 246.3 248.60004C 246.7 248.50003 247 248.20004 247.3 247.70004C 247.6 247.30005 247.90001 246.60004 248.2 245.60004L248.2 245.60004L248.6 245.8z" stroke="none" fill="#000000" fill-rule="nonzero" />
        <path d="M257.8 237.7L257.8 237.3L263.3 237.3L263.3 237.7L263 237.7C 262.4 237.7 262 237.8 261.8 237.8C 261.59998 237.90001 261.5 238.1 261.4 238.3C 261.3 238.6 261.3 239.2 261.3 240.2L261.3 240.2L261.3 246.09999C 261.3 246.99998 261.3 247.7 261.4 247.99998C 261.4 248.29999 261.6 248.49998 261.8 248.59999C 262 248.7 262.4 248.79999 262.9 248.79999L262.9 248.79999L263.3 248.79999L263.3 249.19998L257.8 249.19998L257.8 248.79999L258.19998 248.79999C 258.69998 248.79999 259.09998 248.69998 259.3 248.59999C 259.5 248.49998 259.59998 248.29999 259.69998 247.99998C 259.8 247.69998 259.8 247.09999 259.8 246.09999L259.8 246.09999L259.8 240.2C 259.8 239.2 259.8 238.59999 259.69998 238.3C 259.59998 238 259.49997 237.8 259.3 237.7C 259.09998 237.59999 258.69998 237.5 258.09998 237.5L258.09998 237.5L257.8 237.7z" stroke="none" fill="#000000" fill-rule="nonzero" />
        <path d="M277 249.6L268.5 238.3L268.5 246.7C 268.5 247.4 268.5 247.9 268.6 248.09999C 268.7 248.29999 268.9 248.49998 269.2 248.7C 269.5 248.9 270 249 270.6 249L270.6 249L270.6 249.4L266.1 249.4L266.1 249C 266.7 249 267.1 248.9 267.4 248.7C 267.69998 248.5 267.9 248.3 267.9 248.2C 268 248 268 247.5 268 246.8L268 246.8L268 240.40001C 268 239.50002 268 238.90001 267.9 238.50002C 267.8 238.20001 267.69998 238.00002 267.5 237.90001C 267.3 237.8 266.9 237.8 266.3 237.8L266.3 237.8L266.3 237.40001L269.9 237.40001L277 246.8L277 239.6C 277 239.1 276.9 238.70001 276.8 238.5C 276.69998 238.3 276.5 238.1 276.09998 238C 275.8 237.9 275.39996 237.8 274.89996 237.8L274.89996 237.8L274.89996 237.40001L279.29996 237.40001L279.29996 237.8C 278.79996 237.8 278.39996 237.90001 278.09995 238.1C 277.79996 238.3 277.59995 238.40001 277.49994 238.70001C 277.39993 238.90001 277.39993 239.30002 277.39993 239.80002L277.39993 239.80002L277.39993 249.80002L277 249.80002L277 249.6z" stroke="none" fill="#000000" fill-rule="nonzero" />
        <path d="M282.5 249.2L282.5 245.3L282.9 245.3C 283.4 247.8 284.6 249.1 286.5 249.1C 287.3 249.1 288 248.90001 288.5 248.40001C 289 247.90001 289.2 247.40001 289.2 246.8C 289.2 246.2 289 245.7 288.6 245.3C 288.2 244.90001 287.4 244.5 286.4 244C 285.4 243.6 284.69998 243.2 284.19998 242.9C 283.69998 242.59999 283.3 242.2 282.99997 241.7C 282.69998 241.2 282.59998 240.7 282.59998 240.09999C 282.59998 239.2 282.89996 238.49998 283.49997 237.99998C 284.09998 237.39998 284.89996 237.09999 285.79996 237.09999C 286.29996 237.09999 286.79996 237.2 287.19995 237.29999C 287.69995 237.49998 288.09995 237.79999 288.59995 238.29999C 288.89993 237.99998 288.99994 237.59999 289.09995 237.19998L289.09995 237.19998L289.49994 237.19998L289.49994 240.39998L289 240.39998C 288.8 239.49998 288.4 238.79997 287.8 238.19998C 287.19998 237.69998 286.59998 237.39998 285.8 237.39998C 285.09998 237.39998 284.59998 237.59998 284.19998 237.99998C 283.9 238.39998 283.69998 238.79999 283.69998 239.29999C 283.69998 239.9 283.9 240.29999 284.3 240.69998C 284.69998 241.09998 285.5 241.49998 286.59998 241.99998C 287.59998 242.49998 288.39996 242.79999 288.89996 243.09999C 289.39996 243.4 289.79996 243.79999 289.99997 244.29999C 290.29996 244.79999 290.39996 245.4 290.39996 245.99998C 290.39996 246.99998 290.09998 247.89998 289.39996 248.49998C 288.69995 249.09999 287.79996 249.49998 286.59998 249.49998C 285.3 249.49998 284.19998 248.99998 283.3 247.99998C 283.09998 248.29999 283 248.69998 282.9 249.19998L282.9 249.19998L282.5 249.2z" stroke="none" fill="#000000" fill-rule="nonzero" />
        <path d="M302.9 237.3L306.9 237.3L306.9 237.7C 306.4 237.7 306 237.9 305.69998 238.09999C 305.4 238.29999 305.3 238.49998 305.19998 238.79999C 305.09998 238.99998 305.09998 239.59999 305.09998 240.29999L305.09998 240.29999L305.09998 244.29999C 305.09998 245.29999 305.09998 246.09999 304.99997 246.59999C 304.89996 247.09999 304.69998 247.59999 304.29996 248.09999C 303.89996 248.59999 303.39996 248.99998 302.69995 249.2C 301.99994 249.5 301.19995 249.59999 300.29996 249.59999C 299.19995 249.59999 298.29996 249.4 297.59995 249.09999C 296.89993 248.7 296.29996 248.29999 295.99994 247.7C 295.69995 247.09999 295.49994 246.3 295.49994 245.4L295.49994 245.4L295.49994 244.2L295.49994 240.4C 295.49994 239.4 295.49994 238.79999 295.39993 238.5C 295.29993 238.2 295.19992 238 294.99994 237.9C 294.79993 237.79999 294.39993 237.7 293.79993 237.7L293.79993 237.7L293.49994 237.7L293.49994 237.3L298.99994 237.3L298.99994 237.7L298.79993 237.7C 298.19992 237.7 297.79993 237.8 297.5999 237.8C 297.3999 237.90001 297.29993 238.1 297.19992 238.3C 297.0999 238.6 297.0999 239.2 297.0999 240.2L297.0999 240.2L297.0999 244C 297.0999 245.3 297.19992 246.3 297.29993 246.8C 297.39993 247.40001 297.79993 247.8 298.29993 248.3C 298.89993 248.7 299.5999 248.90001 300.5999 248.90001C 301.29993 248.90001 301.9999 248.8 302.5999 248.50002C 303.19992 248.20001 303.69992 247.90001 303.8999 247.50002C 304.1999 247.10002 304.3999 246.70001 304.3999 246.20001C 304.4999 245.80002 304.4999 245.1 304.4999 244.1L304.4999 244.1L304.4999 240C 304.4999 239.3 304.4999 238.8 304.3999 238.6C 304.2999 238.3 304.1999 238.1 303.8999 238C 303.5999 237.8 303.1999 237.7 302.6999 237.7L302.6999 237.7L302.6999 237.3L302.9 237.3z" stroke="none" fill="#000000" fill-rule="nonzero" />
        <path d="M313.5 243.1C 313.9 243.1 314.4 243.1 314.9 243C 315.4 243 315.8 242.9 316.1 242.8C 316.4 242.7 316.7 242.5 316.9 242.3C 317.1 242.1 317.3 241.8 317.4 241.5C 317.5 241.2 317.6 240.8 317.6 240.3C 317.6 239.5 317.4 238.8 317 238.3C 316.6 237.8 315.7 237.5 314.2 237.5C 314 237.5 313.7 237.5 313.40002 237.5L313.40002 237.5L313.40002 243.1L313.5 243.1zM322.6 249.3L319.4 249.3C 318.8 248.90001 317.9 247.8 316.8 246.1C 316.4 245.6 316 245 315.59998 244.5C 315.19998 244 314.89996 243.7 314.8 243.6C 314.59998 243.5 314.4 243.40001 314.09998 243.40001L314.09998 243.40001L313.59998 243.40001L313.59998 246.1C 313.59998 247.1 313.59998 247.70001 313.69998 248C 313.69998 248.3 313.9 248.5 314.09998 248.6C 314.3 248.70001 314.69998 248.8 315.19998 248.8L315.19998 248.8L315.8 248.8L315.8 249.2L310 249.2L310 248.8L310.4 248.8C 310.9 248.8 311.3 248.7 311.5 248.6C 311.7 248.5 311.8 248.3 311.9 248C 312 247.7 312 247.1 312 246.1L312 246.1L312 240.20001C 312 239.20001 312 238.6 311.9 238.30002C 311.8 238.00002 311.69998 237.80002 311.5 237.70001C 311.3 237.6 310.9 237.50002 310.3 237.50002L310.3 237.50002L310.09998 237.50002L310.09998 237.10002L311.8 237.00002C 313 236.90001 313.9 236.90001 314.5 236.90001C 315.7 236.90001 316.6 237.00002 317.3 237.20001C 318 237.40001 318.59998 237.80002 319.09998 238.30002C 319.49997 238.80002 319.8 239.40002 319.8 240.00002C 319.8 240.80002 319.5 241.50002 318.9 242.00002C 318.3 242.60002 317.5 242.90001 316.3 243.00002C 316.8 243.20001 317.59998 244.10002 318.69998 245.60002C 319.59998 246.80002 320.3 247.60002 320.9 248.00002C 321.4 248.40001 322 248.60002 322.8 248.60002L322.8 248.60002L322.8 249.3z" stroke="none" fill="#000000" fill-rule="nonzero" />
        <path d="M332.3 244.5L330.19998 239.4L328.09998 244.5L332.3 244.5zM332.5 244.9L327.9 244.9L327.6 245.7C 327.1 246.8 326.9 247.5 326.9 247.9C 326.9 248.29999 327 248.5 327.3 248.7C 327.59998 248.9 327.9 249 328.19998 249L328.19998 249L328.19998 249.4L324.59998 249.4L324.59998 249C 325.09998 248.9 325.49997 248.7 325.8 248.4C 326.09998 248.09999 326.4 247.5 326.69998 246.5C 326.69998 246.4 326.9 246.1 327.09998 245.5L327.09998 245.5L330.59998 237.1L330.89996 237.1L334.89996 246.70001L335.39996 248.00002C 335.49997 248.30002 335.69995 248.50002 335.89996 248.70001C 336.09998 248.90001 336.39996 249.00002 336.89996 249.00002L336.89996 249.00002L336.89996 249.40001L332.19995 249.40001L332.19995 249.00002C 332.79996 249.00002 333.19995 249.00002 333.39996 248.90001C 333.59998 248.8 333.69995 248.6 333.69995 248.40001C 333.69995 248.3 333.59995 247.90001 333.29996 247.20001L333.29996 247.20001L332.5 244.9z" stroke="none" fill="#000000" fill-rule="nonzero" />
        <path d="M350.2 249.6L341.7 238.3L341.7 246.7C 341.7 247.4 341.7 247.9 341.80002 248.09999C 341.90002 248.29999 342.1 248.49998 342.40002 248.7C 342.7 248.9 343.2 249 343.80002 249L343.80002 249L343.80002 249.4L339.30002 249.4L339.30002 249C 339.90002 249 340.30002 248.9 340.6 248.7C 340.9 248.5 341.1 248.3 341.1 248.2C 341.2 248 341.2 247.5 341.2 246.8L341.2 246.8L341.2 240.40001C 341.2 239.50002 341.2 238.90001 341.1 238.50002C 341 238.20001 340.9 238.00002 340.7 237.90001C 340.5 237.8 340.1 237.8 339.5 237.8L339.5 237.8L339.5 237.40001L343.1 237.40001L350.2 246.8L350.2 239.6C 350.2 239.1 350.1 238.70001 350 238.5C 349.9 238.3 349.7 238.1 349.3 238C 349 237.9 348.59998 237.8 348.09998 237.8L348.09998 237.8L348.09998 237.40001L352.49997 237.40001L352.49997 237.8C 351.99997 237.8 351.59998 237.90001 351.29996 238.1C 350.99997 238.3 350.79996 238.40001 350.69995 238.70001C 350.59995 238.90001 350.59995 239.30002 350.59995 239.80002L350.59995 239.80002L350.59995 249.80002L350.2 249.80002L350.2 249.6z" stroke="none" fill="#000000" fill-rule="nonzero" />
        <path d="M366.1 244.8L366.5 244.8L366.5 249L366.1 249C 366 248.5 365.80002 248.1 365.5 247.7C 364.4 248.9 363.1 249.5 361.4 249.5C 359.69998 249.5 358.19998 249 357.1 247.8C 356 246.7 355.4 245.2 355.4 243.40001C 355.4 242.20001 355.69998 241.1 356.19998 240.00002C 356.69998 238.90001 357.4 238.20001 358.3 237.70001C 359.19998 237.20001 360.19998 236.90001 361.3 236.90001C 362.19998 236.90001 363 237.1 363.69998 237.50002C 364.4 237.90001 364.99997 238.30002 365.3 238.70001C 365.59998 238.20001 365.69998 237.70001 365.8 237.1L365.8 237.1L366.19998 237.1L366.3 241.70001L365.9 241.70001C 365.6 240.1 365.1 238.90001 364.3 238.30002C 363.5 237.70001 362.59998 237.40002 361.5 237.30002C 360.2 237.30002 359.2 237.80002 358.5 238.80002C 357.8 239.80002 357.4 241.30002 357.4 243.20001C 357.4 245.00002 357.8 246.40001 358.6 247.40001C 359.4 248.40001 360.4 248.8 361.6 248.8C 362.2 248.8 362.9 248.6 363.6 248.3C 364.30002 248 364.80002 247.5 365.2 246.7C 365.8 246.2 366 245.5 366.1 244.8" stroke="none" fill="#000000" fill-rule="nonzero" />
        <path d="M380.1 245.6L380.5 245.6L380.2 249.40001L370.2 249.40001L370.2 249.00002L370.40002 249.00002C 371.00003 249.00002 371.40002 248.90001 371.60004 248.80002C 371.80005 248.60002 371.90002 248.40002 371.90002 248.20001C 371.90002 247.90001 372.00003 247.30002 372.00003 246.30002L372.00003 246.30002L372.00003 240.40002C 372.00003 239.50003 372.00003 238.90002 371.90002 238.60002C 371.90002 238.30002 371.7 238.10002 371.60004 238.00002C 371.40002 237.90001 371.00003 237.80002 370.50003 237.80002L370.50003 237.80002L370.50003 237.40002L379.10004 237.40002L379.40002 240.40002L379 240.40002C 378.8 239.60002 378.6 239.00003 378.3 238.60002C 378 238.20003 377.69998 238.00002 377.3 237.90002C 376.9 237.80002 376.3 237.80002 375.5 237.80002L375.5 237.80002L373.8 237.80002L373.8 242.90002L375.09998 242.90002C 375.69998 242.90002 376.09998 242.80002 376.3 242.80002C 376.5 242.70001 376.69998 242.60002 376.8 242.30002C 376.9 242.10002 376.9 241.70001 376.9 241.10002L376.9 241.10002L377.3 241.10002L377.3 245.20003L376.9 245.20003C 376.9 244.50003 376.8 244.10002 376.69998 243.90002C 376.59998 243.70003 376.4 243.50003 376.19998 243.50003C 375.99997 243.40002 375.59998 243.40002 375.09998 243.40002L375.09998 243.40002L373.8 243.40002L373.8 246.30002C 373.8 247.70001 373.9 248.60002 374.09998 248.80002C 374.3 249.10002 374.8 249.20001 375.59998 249.20001L375.59998 249.20001L376.49997 249.20001C 377.09998 249.20001 377.69998 249.1 378.09998 249.00002C 378.49997 248.80002 378.89996 248.50002 379.3 248.00002C 379.6 247.2 379.9 246.5 380.1 245.6" stroke="none" fill="#000000" fill-rule="nonzero" />
	</g>
</g>
</svg>